<mxfile host="app.diagrams.net" agent="Mozilla/5.0 (Windows NT 10.0; Win64; x64) AppleWebKit/537.36 (KHTML, like Gecko) Chrome/133.0.0.0 Safari/537.36" version="26.0.16">
  <diagram name="第 1 页" id="a4AMWlx77EueZsAJXqjI">
    <mxGraphModel dx="2391" dy="821" grid="1" gridSize="10" guides="1" tooltips="1" connect="1" arrows="1" fold="1" page="1" pageScale="1" pageWidth="827" pageHeight="1169" math="0" shadow="0">
      <root>
        <mxCell id="0" />
        <mxCell id="1" parent="0" />
        <mxCell id="HXg6kgFIzx5bsLZ2JNcb-1" value="" style="shape=image;verticalLabelPosition=bottom;labelBackgroundColor=default;verticalAlign=top;aspect=fixed;imageAspect=0;image=data:image/png,iVBORw0KGgoAAAANSUhEUgAAAEgAAABFCAYAAADpc6CZAAAAAXNSR0IArs4c6QAAAARnQU1BAACxjwv8YQUAAAAJcEhZcwAAEnQAABJ0Ad5mH3gAAAZSSURBVHhe7ZpfbBRFHMd/s9MWao1pRalKfDEGH+RJDZr4J1GjRoSjiNIeJIoQNLaHaNAYEuF61ajRqIRri6LE4MO1RyPecWiCERMSfJAHeSD6YnzQGP6ZcqCAUG53nN/0t5drubvdvdvb7p73SbYzv193Z3e/85vfzO4egyqJj3w9nwnjqAC9mXNeVXtCCMMQ4sj68NK7yDXjOLqhoUTqMuO8iUxPyYlc9qWeZdeS6RmWAg2NpHcwTVtHpi/o7V5SdeTbpeyJBkdT32iMP06mr/BKJI3KokR6uhZR9X+LrV7YNpp6ponxXWTOKF4OL8TRyd7/Yn9b26yJc2R6hpzadkXCodVkeoprvbE9mZmnG7lHhMY2cuALyG0LYYjd0AQ7c21NBzcsWnSJ3P5hOJkR8WTmLzIDC94HbmS6ApveoJET90dWhQ6RGQiGkns/YsBeJlPhVq66QqACUvIky6juS4YTqePA+Q1kTsELgfJcPndh7oa13b4YgvJ6U7JYOmmVxlOBpiOT6mN94dC3ZNaU7SPp1ULTPifTNjMqUCmE0H8XoL0jHzkz61d2HSN3WYaTqdtA8MXCgDcZh1ZyV40vBfITbglU9lGjQUMgSxoCWdAQyIKGQBaoTF9vM5lbMxiSb6heRHJTHCQ/xLBh/KpAZuCQV37IbXGQog26GU3yorETAhudZRWPj6bHONOeIrMiCnt1PAb3UrUsc6LwA5Z297eD0zbN/W2FZHT37pZO0VrRmz5ToDMD9qOofcvkdTk5xopK2sRjbE3zsRUrJvBGzc0wjOfoX3UPiydSRv6Tsa7f0buy64iqO+TTRLpzgmufyIamvKsJegQVfZo/3zTR+dry5afIdIWgClR0iLXlWk7W62sQp5TNQSgSboPJzFfk8j86HDCjxQ1sJWm5U5cpFm5DI+mK8pQXGBrcjCWK5IZQ7r9R1MU54Ow7uTYc4xfh0AvPhv5At2c5SIcv22MwZe0m1z66XNdwrDu9jpq/cjVnsewAbFcOG3RsgRexdHKMiXksClEsgmy3KUB0RKHXM4G8xowU+WedFO0z5awAzwQ6E4MP5YlmK2cNwV7HcvpQKoymbAyGqVoajKB+6PNOoEryiUOscpf5fylQmjEIKWcZcH9bs1gg0OE81UpiCiejzPLLrImm63rNe9YL5Mx1NZYyOg4qRwmyUbiA5cRFuEk5LNDWr+wKfBSZQ0f2NJND5wHlLAF+vcX95r4Nx8lVFiXOTM00rsDgVqrB2QGw9UbU3E8IeFI5ypCPHhTJMMR7ZAYDAbvaN8NvWK1kEpC5yPIRasrwioRDr6NQQogfyeVr2qOgfrdYyxmyaP7p6wndg0KdZP/OIpfvMPPO6Rh8rBwOMZO1lHaTKktgO/cMJvZe0jhrIdM2Zn4Tz0Nz9ka4Wzmr5NgvcHjBGExg3Sp6UEirddHpKNynHAUIHbJz3oKfTYGwtB2mQ6P7HmRMfE9mWWo5AYwPwCX5BFqy0+RNbuyQK3i5ij8v7/AqcucxBSrH1JW0AeO94SXXkeWIwURmncZhB5l5TIGc5Anzwq163k70ULXovnbOU/RRwzCMw5HwUleGg4nXAhWKg1QqUNEkrWnaQhSu1s9ptUIOrYepmkfXYZyqkwj4AAs5/M4quwRFBSrEFAq3obE9j5Lb18i8c0V+FM2wmKoKuUR4VVUYXKPKElgKVAgzmvcXCoZbfHTvPvq3Z/zzBtyO5fRhhBTzIZezcJSqef628ZXVl687rHIDkt+nH3bKbl6jnJJSAp2Jwp/AYR7W7bSP4H6OIshPnNgEnVi298Na5bBimjj4nhpLKwIr0OxWOEFVddMyCavfDsik+7RyTkMYsMYU5+xmeIIze/ceWIGQwiEyJwazUQD5hH4LuabQ0Q/q1/p4jEzYtvOmZzkoqNQ8grYl9yykaiBh8UQmx/nkR7V6QRhia1849AqZVaHCv55EErncT32rlt1JZtXk88PWRLqzhWv5mSGI1CLfXdHgcCJ1Cji/nsxAYAhIRnqW9JDpKiUVj49m9su1gq+fvQwQGyLdoW1k1gRbIVnrpYBTvFw62Jrm8YLwHRGZM4ZcBL7r9bqqopMNJ9MPSW0PkFlTTraKtlgoNPmCfQZwrTfkMMQfSqlfd1WKIfRfIz1d88ls0KBBvQPwH6H0mivTsD0IAAAAAElFTkSuQmCC;" parent="1" vertex="1">
          <mxGeometry x="280.49000000000007" y="299.5" width="56.35" height="54" as="geometry" />
        </mxCell>
        <mxCell id="HXg6kgFIzx5bsLZ2JNcb-2" value="" style="shape=image;verticalLabelPosition=bottom;labelBackgroundColor=default;verticalAlign=top;aspect=fixed;imageAspect=0;image=data:image/png,iVBORw0KGgoAAAANSUhEUgAAAFgAAABiCAYAAADUdBT/AAAAAXNSR0IArs4c6QAAAARnQU1BAACxjwv8YQUAAAAJcEhZcwAAEnQAABJ0Ad5mH3gAAAxpSURBVHhe7Z0LcFxVGce/c+/m1abkUdpgRaGDiFAeI4gzKAiogDyyaS0kmwSmgI/apGmBMhSkdLvR8nJGaZNU8QGVgTwAbbthOoJOGQRFsTIKFEdEpAWEtjQvSjZk997jd7ZfYnb33rvn7r13s0n2N5PJ+Z/N3tz7v9+e853H7jLIIsFgUFm0aBF7Xy9Zr3HtfFVRz6eH0qLp2jMqU585Wom07tmzh4dCIZ0eymlcNfgHDz05u1gdPaD6YBZVTQqM6+euCNT8geSk4sjg9u7wOwpjC0jmNMMxPu/mRv/7JLOGbYM7unb8hCnKcpJTDh6LvdjcuOQskp4jbXB75456RVU6SU55uKY/0txQczVJz1Dod1qmk7kCpiqNVz36qErSM6QNno48VlurUdEzpA1uqqtmwPmUSI1kiF9PFsjon3R09z7IGFxLcuqgQ29TfbWfVFZwfBfbusNLVcYeJ5lzMM6+syJwxf0ks44nL5P7Hw1/UufskijoN/pAOZmqvUPjr3Om/ziqx3pvaLzyX1SbZybAgk8/7as6cDgqhMZ5tCXgL4w/MoPpeHh7KytQ7xBl9ORN9GRh/IEMUMbMFWBbWrClp5eTnJGI6x8zV4CeHE/FjDBM08Q/2dK5fdz4mUBHV++zXgQXkznoiDZy6k0NV+0hOa3owEBiquojaYiTnFnK4HG4/lpToOYkUlOWe7f++oTSkoLXSaYlewYncTSL+GqzMNx0g02dj322QC1+kaQtJs3gZLRo7PSWq5e8THLSECsn8z5z5vOKonyeqhyRMwYboz/EgN8z9AG8tfabiz+gSlfo6Nr2CWAF1YzxDqryhBw3eOrjxOAZPV2ZDfIGe0zeYI/JG+wxeYM9Jm+wx+QN9pi8wR6jDIxEj6ZyHg+Ij1DuffCJY0pn8XfjNXkScDKKEyQ8OT9snkCMndDUeMUbpDImoQ3ef3DvHCrObGL8sBvmCgzDf8pFsgYRzvh2iGhrm69f8hbVptDes32nosGXQVWLqCoFp01CMqYHu++Rx08s9BW9RjJn4DoM8JHIySuvq32PqhzR3hW+VVHYRp3DaysD1a7v4ZC6WxjRYtVi0lI6XdP7VjbUzCU5pbD1cmjr7I2pKni+5XOM/SxSFKqtHSWZwL4boWROObQwBvdQlRQYqS8wHZZXhOBvVOUpGbU3bd2/OhN0dbeqqq62V2MMx4bm3dzYmLLdvy8E5ykMfk/SNbgGX0HDd5F0FccGtffsqFVA6SHpCKMOZigIp+gqZG3LgP4hlFfeA4MkHRO/oI6u8O2cacsKlNKzl9de5Ojg7d3huxXG1pKUgnNtb3NgccIOGn4VqIOnQYxk1tF1eKByA3yDZMakrMnFtNjwqoYls0m6QltP+BxFZ9czDgFswUupOk5y1E62sSlosLc8BBlvnzJd9IzA8Kw1dXURklmhLwijigoFJHOK8vWZNaemqVcJzBoW5rf39F5JVZ4y0Arcjrm6Bn9mUfhC8oWXvQyW26A4h1fxV90RJY84v/4gDJCURnrZHk/s7uZA9W0kXaMf2zmmwM9JWqJibz9nQm8/GIInOYOLSR6Bwy4cjJzDVIwRC/AGXVMZgodFua8VghhpG+IPSHDgIBR/ug0+ImlJRvsi8AKea66vPo9kxhxqhSgm1eki7omKIFSTHEdEFBVTEFFt9fgEDuPfJsy/SD5PuslwvPEEM4AhDZRlqwL+7VQlhcyFmF1EuudidEZlm5tM/4cAX1Gn4SvqFZKGODbYEE07GGPsllX1NVupJoG0J8/ha+VBeJJUArIRpkXhXLUAniNpCj8EFRWbzNtWiXP9JZ6r6TuuvJlfUNV5PkV50OjmHQqC5XvtRESZmWuHigHYTUVTsKm7m82FfisT0zYFDJZhX2D6xhtPJ3CSc1xhrqqanvC+dBcjG72CoXkwku54FRtgvNO2uvHiOHoUvkQyBexoP4UZxmGSCXhmcLK5whwLc8VFHEdFQ/pDcAsVpfmwFc7CwU0fyQSEaRNvmNW5CSq/B89a3TDMWgwHZ54YbGQuFVPQsE9KF2kCu7NmgijA7rIgpExzYmay78MgpOwdHgjBO1Q0xepcja7T/U7OV1jVtPSSA6SszdVAmxuyTtPcAHPt6zDXfoBkSvROROZmC6yua+IxXDdYNnoxldIw0Zcyd7AVXsCDnE3SFJnoGo7A/OJCeBbTOMP3msgafPi78LFYMfyXZApjx3G3ifCNVlEpjpm5GLlc1lyBjLnpEBcsmqMFd8FBM3PtUHonvKtH4AySKQxQp+eawXqMjzYtXSrVNGCz4HrbzzWooKIpc9eDanVedqm8C15SdPg2yUSw0+vbAMtcu9CVjf7xlVqrSRFsGqQ/yksWzK9iFaH0EzF4XuVUdI2jNsDP8Ja9RDIBRYGtisa1EdJuYvp+ZxYD02X1TKlcLzcsxlSqn4ruwsyPq7QEFlvOOsnS0RMeH5ZiNJl+bhorAlc2dExELCthpvAtklkF29oA/jJ+VeqwLt5EHOn59YfilRnCgH2RinGseuNDrSL9lQf/2HSFA3PaNWLNDtOwn1KVIdg8DFHRNYbWwcnY1naRTGa4fANsHG+Dm+pqlu1/tdTRakJyymdmsoqvHByaSi8LYfcfpGIKFUH4IRUtO1Z8VR2Fv9ZxHbrjPxxeET9HHrXPB7dBlV4Yn7w3BK89PrIzNMBJbmxzFBfDnl3qphod56mXwXdx0voddqLHYQq4D0dl/6EqacqDIP25EFbXNTGwDLMIYVJ0jlpM0hayUSwQk+3pZtfM0DmMXHwKXEhyHMxx98YLDI63+4PtaW38uWmQNVdgevETySSi7USywOpGCPDJDEd04zdD/L3pMTmmTsx+p5fuHPQWKBKzdCRTMHq+VB4szMIfWzmznUgWiOUjKhqCT+ZiBBgXGmyz7CjR3LK3zVNFI2IaLKKiIRjdQ1bmxjg8QsUELC/aCtmoTo7kdOtw6W6EiNoyDYoGVetFR8sITwJfFiOYS5umqxLHWY7/zzCLsRWVExHGYUjZ3iCSrlOTaUrSmSvoC8Gtug5Sn+dmZW5fEH5DRVPMzBVkHMHJtHeFf6Qo7AaSCex/dbc68ROrD4TgvMI0m/g0Dq/PDcKJJBOQjUyZKB4dgQXz74SU96dg3nwnjvystyloECm3GFQJGI7A1uMgIUQaou+9Ubx69WqpNX8rOjrDXTgAWKoCi0esrumnrmyoSdjEJ2OU/hEcX7mRMoMJyJocGYSqkjLYTzIBPMBwBeWrY/S1wkf4sk7ffmvQjOZuIWWK4Xwwj/ELmhv9z5D0FOw8BjBfKyNpiU+BBaXr/h9tmOL1qar1LJro7AaPhZQ9xpgvn4H5cnyS5lAILlFZ+qZgDByg7MQBzuUkLbGccOc6DzTX+13ZmmpF31ooU2bb25aEo7u/YA+yuiwIz8u022N/QyO5Pyo+2Bx/0CbiWFSUQmpFQ2wuaQ4sloqyTMm5XZVJZLpJ2/aSEefc3xzw95J0Hey1T8fR2N9J5gR2o3YijtbksAkJYhPSStJV+m+HhV5Mbdrgr2js56icMY4MTkaL8UFd8Z21uv6yf1OVY/rvgAsxD/Hk/RNGFGjw8dkh88VMu7hqsBniLQLA2VOYCIdb6mueoGrbYMbxVcw4fkvSPUz2wrX39O7ElO3S5NGoHbJicKZE3h6etWaN+S57bK/9OBi4H6/+GKpKC6ZnYm55q5jSPFKTyKZf7JxXUKqNL94Kpq3BY4ghOVOLTm2qu/SfVOU6bZ3hXarKUqY/BdPe4BQ4f6kp4DfdkyBDR/eOFjzQ9xlTxUqHJTPPYAs0DYYVxsebFZ2zEhztOfryKicGZzyblqsIM5nC5o79ODXXKdPO4Fwjb7DH5A32mLzBHqM46SFnAprG/0TFjIhHcN5kYzjwFS0N/nNIZkSCsZu7w/t9jM0nOaNxK+gS2uBVAX+VWsJd/SiDqQbXeZebr2jTA7V1h0fFV++QnBFounJSS/3lrn7SVto7hWP2txhTjiU5LRnV9GNuaKgxXHl2ivRLIf7dRmm+kmbKwbWLmgKLf0fKE2y3Nbn+DYhp4fo/mgI1p5DyHEeN+VSaidMAvt5SV72NZNZwZPAYnHO2pSe8C9vqC6gqJ2B6bOGK+iVvkpwUXDE4mfs6d5xeqCpZX3rXOGyuUiI35dIXWHlicDKbNu0sKpgfWwoKM9xDmwlc17fFYgXXrr7mMtff3OImWTFYEhYMBsfPJxQKifZ9Wq225HEdgP8BeeCkMhCJ8Z8AAAAASUVORK5CYII=;" parent="1" vertex="1">
          <mxGeometry x="120.36999999999998" y="86.95" width="48.53" height="54.05" as="geometry" />
        </mxCell>
        <mxCell id="HXg6kgFIzx5bsLZ2JNcb-3" value="" style="shape=image;verticalLabelPosition=bottom;labelBackgroundColor=default;verticalAlign=top;aspect=fixed;imageAspect=0;image=data:image/png,iVBORw0KGgoAAAANSUhEUgAAAFUAAABMCAYAAAAcLPsJAAAAAXNSR0IArs4c6QAAAARnQU1BAACxjwv8YQUAAAAJcEhZcwAAEnQAABJ0Ad5mH3gAAAwLSURBVHhe7ZwLdBTVGcfvYzZPIBTyDkg1CtICKlrwVR+tHlohS1DJBvCoHFuFhCAWSVDxxBwBE9Aq5uWrx4qSB8hrg61aT63KsfhqD1XRglqLZDdsIIkBsiSZe2/vjF/WLCQhszO72dj8zknm/r9kk93/3Nd3586gIYYY4v8VDMeQU17j3AFFHULEVUKQH4E8IwKxvUiQr0EihnDh0uyMvSAHlKCaWvrClkuQYnte/pefUkpDfgKZyj6hCtmf47DfBKGQEJQPWlZV104oigAZNggmvLnz7TEggwaBo2WU1ThZOBqqgSmOLqvZsR9k0LDU1NLqV8YTjC0/UVZCMD0PikHDUgPy5s3cjwS+HmRYclJtT4di0Aja4LF+48bYiKgRL9kEzYTQwCAEj4jiI2lzXOfChdeehGhQGZApVWn19muIwJtBIo5IlJwcDAfZbwQXLfJbp1ZmGB9bOm920GthfzBsalnVrumY8iv4Sf523m2ZH0J40PPEZudZkRjd1NCEni66y94G4YAw1KcWFm6OIFTswQg/RhT0dwj/IKAc7REc/z5xBNoDoYAxVFNLq7ZeT2nE6yB1ZJd1KDd79liQg46Kqh2diFIFpE6OI8NUt2joxZW1dXMEQttAnoaK0AfJ2HtZVlYWg1DYUVhYqMSfP3U5JaQYQqcRVqb6wcUjMguoznPM/BgiA0bFlh0XqSodphD0NoT6JHxN7QE5WmcLgtkSR8bLELKUp7Y6p8q5wNkc6xnIFggbZlCZeiYw5w2c0Eo5QWqH0GnIwSSOCL5Q9oPJELKcH5Sp4YJZU8M6T7ccJrwMCT1ZCCY/2JoqhNrq8aJxRQvntECoRypq67YzVZ1NFcXnxVDzPwXBOfckj4gsuvZaOcNDqPm5GzO9+3efY0sef6nqOTCXEYXZoketZcebmlNL6h/XXySpqK77uWy3+uwgpKaWVe+cTQjxuwwSLgiZheRm2ylI5C5IeAZh8luQvaIKLBTEK1NKPLmarthc58zJyrDrPwwQQ30qofQQFMMPjnRTNFwPnOfuj6EaChYy68Y57tWTCjRt1lANw9Vc9kGyBwgvMMWrFt88a019fvwyQqivSQdCSvFhU01fw/DozxCZwoX4A8gBR7uqqhv64I/zzRqq4V6ZZLrSBHxWntqy6xbOxYsgB4yuQcUKM7pjpsYGPE9dNHfWS9oHkp9kNYRCjvzfRdrRtSKh1wwsUJprl/0CioYx3X90Ubm5boEQ6CWQISFYtVSDyXNGMc1OecTlu0LRXyzLqBZnZWzSPqTsEl6AUEhwrTrrFihaipybYRqXfD9IQ1iepi6ZZ79d7xYEncYFKoew5XCu/kU7YrV9gx4IAqyl/gIoGsJw899Qvf1yheDf5Toyb4ZQv9hQvS09gtimyHZqTUbGRX7OPPv6YDT97tgU/JP41Q2fgewXhkwtrXFOpRh/BFKmI+oHOQvmTAMVEBVbtyYKrujLeJQr13VytZgSYtN/2APa/ihC0HMe2lFZlJXVEWxTBVKnpRYf/QBkvzBkanmNMxNjvB3k96isMWdBZiKokBJsU8mo9BlJ+e/6XZc7E8bSVOkoFP1RaIKWaWlfpVXOloqNWwfE4GDAj7m+hWK/sXygohTHMSXCVV7lrIbQoEZ0HuNQ7DeGmn+gS39CsBMMi31YfsubnzkdwpYw6PvUYK2ncsaboKjDOTlBCH9DYNShEMXLRGeMYOhyTEiKPEP6e+Y2fMvSufY/B9vUQNJVy5t/IBBKRnX/UmxorDwulLOAuwTiywimd1KFTiIEj/b9joomwcuDBmPIcNPXCAtTA4LgddpBIPFPXVsMF6IT485fgTTE4DUVsVYoBIW0Ek9E2romPWszyqA1laokLLZN9oShTrjXyX8I6VqZ0nAXxG9H2PpNxWZX/w3VVNlrH4TigPAm9uq78w6tTB2tj/phaKiGIVPzsu3/4Jy/DzK0cLZ7S1YWcxckfE0ROwJRyxAE77XCUA3DfeqSebOnd2+CoaKjgyzQC5iM049WoUQ8S6YuGp66tuFCiJjGlDmltXUPU4RWgTQOY40qwiVL589+DCI65bXORRjhSpA6wVjl56JjXFpJs+VdmqnRP8+R8aAquKG1xu50jowY22WokD2kHpTkOuxPHcbe4Wb+dn8IhqEaljVjWWud8o9dJs9SPIT6RGZKf8p1zJ6plU+tfSpns8auO/IKSLShtjZBEdGX5mbb69wFieXa5gf4kSmSZ9TYMGwPshLLTO1OWY3zCYLx3SB7RGvO7uWxiUyJ2kOxcjaET0POOO5OKz78JEgfDWsmzxfHPJtABobgT6eUNC4CZRlBMbU75TU78zgXG069i1oztX5VWgdR1V5X+bvDBH+LjIjLSX3gi30Q0jn+/G3Jzftf+0IRIhZChrBqxO+O4T/Yte1Hm1ppMwE9aICymrobGj/78PWioiI14EFHsP9Gn3XJ3JG5r/otyblWxt9ARp+XL45+dTWEzkiXqeVVzgOY4nMZE2/mzbcHfM1fw5CpFZt3XSxHFL8b0rQtQEuy7b8B2W9a7hkxyhsZfRRkwAgmPk9d75kI0kfjitETVKp8DrJXukztvkfM7JTR0OiPMRoDRR+y77yjvLquz/6zJ1ojoy2ZwMvadb5W4z3rr/g1hHQS1h/9d/IjDQTbYgxvhjCLoTPSr0VqwR7Nyc5cAapPjryYN4Id2LWgs6OtXNu8AGFTMEF5TPrPrhl15853IKQj3zeWM4dijHE+hHy1tGzTjvVEoffqQYnZmmq9qd0QHO0WRLiXOOxZEOoVMRdRV3piHkHY9M69LgRi21OLj9wIskdKq+paKUV+NxuHtak9wWQFpUK4crLtFxwtm1HU6fp0UTs/dv644m+b4VdQQ37iZJmL/wukabigrRir/0kt9vilor3ttR10pmrwNpyyZOGshlNHf4aU1jHF9XEgdeoLUQxpTzoB0jScCdWWOuWhxHveWAMh9FhtbXQ0ivHdOR3SgcoyYtuOy++nvXGK1BGuVeNcB+9N9l3GSCtCbVrfR7Cib5s0C5GZBjv88eqGh84thRBa7nB4NSPlfPo+CJliQGqq9gEOl0x/jjd/fQeEekR2FceiEsbfH7/8nTIIofr8hBkkIvZCpHp7vWHXMEK8nFLimQvKNCE3VSA1O9cxp1Yru5cnxVLCJjBKv9+f1QsCiY9kn3gJSJ3D9yakM4L3yWpsydOFmPwnNszHJxU3fgGhgBiQmqqhCvbV0uxM33Um8fTFtm++dJ+0EdZnl8Q45gTz1tQSj9/T1hqWxZ0joqK+BGkKmVU1j1nvGQXSMIZMLdu07Uqi2Pzmf1agqrgt8jhPuKvbYzbcKxKbEMVnfEydzJp+OXZN/V9B+nDfl9Qmq3c0SMOYWRMw9MKNG1+LPR7ZoQ0yQUMIMS032+6X07tXJsp0E08A2SuE0IsabVfsm1S0pQNCqL4g4T2CieHtnmZMNTT633rrDMumNr0hM573n6xyvgVS52RkyqWCc70f7guuqu+N7tj9LkidtJLG6cQWeyXIkBDQ2Sh9YdtoGmWz/OJbT5za97ruG5bAecytFONHIdQjsl/khPA3U0uOXAchnSPPOiZ2fvk3v+XDnghZ8z+V0iqnTPGMP08qUOSbnb7YkeF3NfdQQWKrNPiM70HltHFMiSsJY20Z4DtcD08+wE940k9dd+BNh2PTnkEBP0bJlKldVNTU7ZV/aQrI0MDRVTnzMnyDZmP5zA3qNx8uBdknRPALk0oa/Z612lA4YY9ob9HXh83UUg1LTO3iiWd3JkUMQ6/KEcOyy739gQlxsbYnASRqWDOxVBxrWgKyV7gt5o8KOZ6XVNRo6eBrqandKat1lhD0/TJbSOAiXxDl/VzHDb6Bzl00/hnk/bbPO6q1xZvUtQ0B3d7TE0EztYvSmh1e2VQjQ/mkX+xFYxbfnlEPEh16eHIuaXU/iimNgpA/XFSkrPvufn8rCNkH7aK8xvmJPEyUUyfLF3PkHPdT7Sjnub1uCD64YuTVhA7fRVHHME1jEnkoee1BS58AF3JTe6Jyy64KxniakE5jwa4nuJcaJRFMvC0IatHKMl09lOPIDLiGuQoSdkZ0sJz4x5t8tXqIIYYYImAQ+h9EHarJTYzQHgAAAABJRU5ErkJggg==;" parent="1" vertex="1">
          <mxGeometry x="-33.72000000000003" y="291.51" width="60.45" height="54.05" as="geometry" />
        </mxCell>
        <mxCell id="HXg6kgFIzx5bsLZ2JNcb-7" value="" style="shape=image;verticalLabelPosition=bottom;labelBackgroundColor=default;verticalAlign=top;aspect=fixed;imageAspect=0;image=data:image/png,iVBORw0KGgoAAAANSUhEUgAAAMgAAADICAYAAACtWK6eAAAAAXNSR0IArs4c6QAAIABJREFUeF7tfQ2YHVWZ5vede293umWTKLCg/OmICwoDKBAiuPyMCwnyIOLKjw47zqiPmd08D5jm1qnbnUHKke6+deqms5MZwwQFXEcNbfx5IDOawCighk2CKAxBmV1QkBgz/CyBSHfS3VXf1ne3bvam052+Vbeqbt3uc57nPLdu3/PznffU2+fvO9+HoEPTCAwMDBwphDgWEY8FgFp8MwB0IWIXfwaxu+65/u8H0hERyzNKRKP8iYgjte/1z1P89hIA7K5FItptmubephs3xwvAOd7+wzbfsqyOrq6uMwDgxLoXfzIRmBCFjOL4Rj1pJj8T0bOmaf4qo7JnQixNkKAbBgcH3y6EOAMRmRD8+cdEdGomeilZISYQ8UkiehIAnhRCPOm67pOmae5Kttr2KH3OEcRxnDcxAeojEfH3+e3RZalJ+QoThiMTyPO8KnkMw+BRac6EWU8QHhlyudx5APAfg8hk0CE6Av8CAD/h6Lrutt7e3ueiF5X9nLOOIJVK5WzXdc9FxBop3pn9bmhrCZ9lshDRtlwu92ixWHysrVszSfi2JggRoeM4lxIRE+IcAFgcLKZnUx+1W1t4J20rEf0MER81DOMBRKxuzbVjaDuCBDtLS4UQSzzPW4qIf9SOwM8VmYno10KITZ7nbR4dHd1kWdZYO7W9LQjCC2siWkpESxBxKQCc0E4ga1kPIPACEW1CxM2IuKkdFvyZJcjg4OCb8/n8EiaFP2QzKfi8QYfZgwBPxapkmZiY2Nzb2/tqFpuWOYIopZgM1wHAlQBwZBZB0zLFjgBvKW8EgGEp5abYS2+iwEwQpL+//5h8Ps+kuA4Rz2+iPTprmyNARI8wUSYmJoZXrlz5b61uTksJopTis4kqMQDgqFaDkUD9HgC8DACsJ8WRF6j7EXE/EXEc42f+W90zEFEnInYAQGftGRGrz/w3AODfjg4i4yYSkL3VRTJuw8GowucuLQmpE+RLX/rSESMjI9cREZPi0pa0uslKieglRHwBAHYS0U5E/B0TARH57y+NjY1VSdHX18dTh8QDK0syWTo6Oo4ioqM58j8cIjoOEY8HgOOJ6ARE5L+3Y+Ct4uHu7u7h5cuX/yHNBqRGkHXr1nW/9tprnwOAzwLASWk2MkJd/F99ByLuIKKnEXHnxMTEzlwu98K8efN23njjjfx724U1a9Z07tu373jXdU/I5/NMmuMR8VQiOh0AOPLolOXwvL9Z8/cjIyNDaW0Xp0IQpdSniOhzrACYQfR3AMBTTAgi2lEoFHb09PQ8k0E5ExdpaGjo5PHx8dMRsUaY0wLiJF53yAoeQ8QhwzC+GTJf6OSJEqRcLl8hhLgpQ1Opf0XE7QCw3fO87aZp8rMOMyBg2/YiIcQiAFhERPx5SkZA+57neUOlUumnScmTCEFYH8rzPJ5O3ZCU4A2UywvihwCAVR5+5rruY6VS6bcN5NNJZkCgXC6fmMvlziYiVu/heHGwcdAq7P4mIErs/RsrQWzb5jktjxhMjnwL0NoJAD/ytXZ/SEQ/Mk2Tv+uQMAJBv/+Jr7T4QQDgT94YSDv8Lph2DcVZcWwEcRznaiJyACBt7dmf10gxMjLyo7QWb3F2wmwqi3Xluru768nyvpTb98/+FnqvaZo/i6PeWAhi27bla2zeGodADZbB++L3CyE2F4vFRxvMo5O1AIFKpXKu53msLnRZcB8nDSn2IGLJMIx1zVbWFEGUUjxa8KhxdbOCNJD/ASYFa4WWSiW+6aZDmyFQLpf/mLWwA7KkcQb2lYmJiVIz51GRCZLGlAoRn/B3TNb7V2K/K6X83232PmhxD4OAUupd/jnTx4iIN3LekyBYj3ueVyqVSpuj1BGJIClMqe5lYkgpWdVAh1mMgGVZ+e7ubiYJR17kJxKI6K9M0+wPW3hogiilvuUfrF0TtqIG0r/IpEDE9YZhbGsgvU4yyxAol8tLhBA1siTRug1SymvDFByKIAmR41VEXOt53lptaiZM183etME5GqskcYw7hCJJwwRJgBysz7Q2n8+vnauqHXH3/GwrL0GiNEyShgiSADnW8ahhGAabkNFBI3BYBBIiSkMkmZEgMZNji6+SMCCl/L5+JzQCYRFQSn3Iv1PTBwAXhM07TfoZSXJYgsRIjn3+BaCB7du3D2zYsMGNqXG6mDmIwDXXXJNbtGhRn3/BjIkyLwYIDkuSaQniOM5KIrotBgHuJaIBrTkbA5K6iAMIsIYxIjJJrmoWFkT8K8MwptwCnpIggeGEHzRbsW/Y7QumaVrNlqPzawSmQyDGM7nLpzIYcQhBBgYGji4UCg8Q0ZlNdMuziOibPTK+10QZOqtGoCEE4tDqYK2N8fHxS/v6+th2wIFwCEGUUncCwKcakmzqREwKQ0rJNlt10AikgkBMeoF3SSk/PS1BbNv+b/7F/i9FbRER/cBfa/BOgw4agZYg4K9Nvo+Il0et3DfIsdw0zbW1/AdGkNWrVy8cHx9n5UD2phQl/ERKeWGUjDqPRiBOBJRSP46qWk9EzxUKhff09PSwCzw4QBCl1HLfVMzfRRR0q5Ty/RHz6mwagdgRUEr9z8Daf+iyfYPbf2aa5j9MJghbtIvykj8kpbwktBQ6g0YgYQQcx3k84mbTvVLKjxwgiG3bH0HEKDtOmhwJd7IuPjoCSik2eM6X60Jb7fT5cCarQlWnWLZtb+DLKyFF2ZXP5y/SioYhUdPJU0Ug6j9/IvqiaZqfR9u2z2FPQGGl1oeAYRHT6VuFQMSji19KKU9jF2afIKJvhBR+V6FQOGfFihW/D5lPJ9cIpI6AbdunICIblws11WI34KiUKvk2WQdDSr1aStkTMo9OrhFoGQJKKbaXtSKMAER0FROED0X+a5iMvrOTs6WUbI9KB41AWyCglGL7XGE98Jq8BvlHfw1yRYhW6p2rEGDppNlBQCn1YGAmtVGh7uIRhG/1hbG6ztZGPtFoDTqdRiArCCil2Br8x0PIs4UJsgcAFoTItEpKWQyRXifVCGQCAaVUBQBuDiHMy0yQsE7e9QI9BMI6aXYQiLJQj0KQGe/xZgcSLYlG4P8jEOUKeRSC/EpKmaSpSN2nGoFEEFBK/dJ3CvruMIVHIQi4rntJb28vO6fRQSPQFggMDg5enMvleBcrVIhEEES80zCMz4SqSSfWCLQQAcdxvkJEB90WbEScSAThgoUQ5xSLxbAHL43IpNNoBGJFwLbtSxHx/iiFRiYIANwhpVwWpVKdRyOQJgJKKSZHJH8kzRCE23itr/G4Ic3G6ro0AmEQaNa+W7MEAX/oOt8wDL7eqINGIFMIRNRUP6gNTROES5NSzmjjN1PIaWHmBAIRDsEPwSUWggDAKBEdY5rm3jmBvG5kphGwbfvfIeK/+Zdlu5oVNC6CsBw78/n84p6ent81K5TOrxGIisDQ0NBxExMTW+Py1R4nQYCInsjlctcXi8WnozZQ59MIREWgUqmc6rruPWxwIWoZk/PFSpCgcG2XN67e0eU0jEAc9nmnqiwJglTr0UYdGu5bnbBJBBzHuZWIEvEikBhBgjZrQ9ZNdr7OPj0CMRmsPizESROEK38+cLt2h+5sjUBcCCil2AMuO9A5Ka4yU51iHbLYQfwuu2HT+ltJdufsL5sderL7NSL6aBqtTWMEOdAOIhpBxH4p5UAajdN1zC4ElFJMjJWI2J1Wy1IlSF2j2JLjWinlV9NqqK6nfREIplM8pTo77Va0iiC1dj4MALdLKYfTbriuL/sItJIYNXRaTZCaHJsQca1hGBuz321awiQRsCyro7u7+88BoCUjxiFr5wgKXfcBwIcTAmkLAKzP5/Pre3p6/k9CdehiM4hApVI5iYhuAIAb2CZuQiLeG9ZtdOgRhA8AEXFfBHu+Ydq8i4niuu763t5efWsxDHJtlnbVqlWLXdetEiOkfbYwLR3jnS8AYCXGW8NkjEQQ9n1eqVQuJKIKEZ0bpsIIab/jW378zsjIyEbLsv4QIb/OkjEELMs6oru7+0r2SZPCdu0PEXGlYRjbovhUj0wQxnxoaKhrfHy8jIg3ptAHrCW8UQhxX7FY/EEK9ekqYkagUqlc7nkeT8+vBIDjYi7+kOIQ0TIM4wu1H1InSK1ix3F43lhOo9FBnU8xWTzP21gqldi3og4ZRaBcLp8vhGBCcDwtJTG3EdEtpmk+UF9fywjCQgROStjPyNUpgVCrZgcAPEJETJQHTNPk9YsOLULAtu23sYEEvooNABxPT1mU1Yh4i2EYb0yut6UEqQmjlGLr2Z8DgEUpA1Or7jEiehgRN0spI5l6aZHcbVutUuoyIlqCiBe14jCPgUNEPiIYMgxjWoOGmSAIC+vvdLFrNybJTUkrkzXwVm1FxK2u6/Kwu7W3t/e5BvLoJNMgMDg4+HZEXJzL5c4josVRfZHHBTAiPkFEQ1LKr81UZmYIUhO0v7//rR0dHTcREZOlc6YGpPT7bgDgK5nbXNfdWigUdhSLxZdTqrutqqlUKkeNj4+fnsvlmAjnBWRg18pZCK/yiLFgwYKhZcuWjTQiUOYIUjftOotJgoifbKQhLUjDpOGFP69nduRyuR0TExNPzRUjFGzkIJ/Pn+a6Lq8XapEX1Fkhw0GvBCJ+GRGHwl7tzixB6oiylO2jRvDJ3gLOVKt8HhHZIviznufxVeJniOjZhQsXPrNs2bLxVgkVpd5169YV9uzZczIivpOIThZCvBMA+Jkt9Sd6pyKKvFPlIaJvMzmiri0zT5Baox3HOYOIrgMAjtxR7Rh+y4QJiMPPrxPR674Ho738KYR43fO86vfR0dHXLcvi59iCZVnzu7q65vPpsBBivud58/3/qtXv/OnPyzmeyERgQgDAibFVnm5Bz/ouC4YRcdgwDHYXGDm0DUFqLbQsa15XV1eVKIh4eeSWt0/G/f4tuDEA4M9aHEPE/UTEkX/jHZkOROwkIl63dQTrN36u/94+rY4gKRHxYfDw6OjosGVZrNrUdGg7gtS32HGc99eNKpmc+zbdQ7qAmRDgtWBttIjdnG1bE6SG3MDAwJG5XI5HlCsQcQkR5WZCVf/evgj4h3ouEW32dfr+yXXd4b6+vleSas2sIMikUeUd/tnFUgBYEsR5SYGny00VAZ4ybebon6lsMgzjN2nUPusIUg+abdvHCyGWeJ63lEcWXoymAaquIzYEePNisxBik+d5m03T3BlbyQ0WNKsJUo9Bf3//MYVCgUlSG13e0iBGOlm6CPClNx4pNo2Pj29euXIlG5RuWZgzBKlHuFwuLxBCXMDKcUR0ga+wyLHQsl6Y2xXz2dAWRNzCyqOe520plUqvZQWSOUmQyeCvXr164djY2MWIeGFAllYpTWblvUhaju1MCiL6cUdHx0MrVqzYk3SFUcvXBJkCuRphhBAXEdHFAHBWVIB1vioCjyPiQ57nPZx1QkzuL02QBt7gdevWde/du/fdRFSNiHgqf4Z1MN9AVe2chKdK7MLiaSJ6WghR/RwZGXnasqyGFAOz2HhNkCZ7xbbtKlGYNAFhaiRKzZJfk00Im/1lRKy+/PVEkFKyesesC5ogCXXp0NDQWzzPO5aI+IT/oFj3t7cCwFEJiRCmWA8AdiPi7/mzPiJi9bsQYndnZ+fu5cuXzykjGG1HEN6BQsRTPM97cTZcZLIsK9/V1VUlkBBiIfvIIyIefdhXXhciVj89zzvoe/B7LR2Tgacxo3XxwHdErD4TUfX32ncA4Dstuw3DeDEMm+ZS2rYhiFLKDu6uv6uug/gCzC8R8e8Mw7hnLnWcbms6CGSeIIGDxX+caSeJiO70T1o/kw5supa5gkCmCcKqIoj4QqOdgYj/3TCMFY2m1+k0AjMhkHWC/BwR3ztTI+p/9zzvQ6VSSRuJCwOaTjstApklSBTBuJW+MeNnRkdHz2znvXf9vmYHgSjvYVOmRxttulLq6wDwp42mr0+Xy+Xed/PNN/8iSl6dRyNQj0AqBPEtcK+WUvaEgV4p9QQAnBEmTy0tIn5c72pFQU7nmYyAUmoIAEKta0OPIL591Q1SymvDwB/BB8mB4rW/9TBI67SHQ0Ap9S3fvNM1YVCKQpBfSSnZVEzDQY8gDUOlEyaIgFKKTTixOlHDIQpBwHXdS3p7e6e1gTrF0KbXIA13iU6YBAKDg4MX53K5B8OWHYkgiHinYRgNH+RFWRxxQ/QuVtju1OmnQ8BxnK+w0cKwCEUiCFcihDinWCw27B7Ntm19DhK2d3T6WBCwbZvdMUSy9B+ZIABwh5RyWaMt0CfpjSKl08WNgFKKyXFplHKbIQjXd62UckOjFWtdrEaR0uniQsBxnJVEdFvU8polCJvJPN8wjFBW8LQ2b9Tu0vnCIOA4zieI6Bth8kxO2zRBuEApJUYRYrbdB4mCgc6THALNnL/VpIqFIMEFnmPmij+N5LpUlxwHAuzvBBHZBhdfTGsqxEUQFmJnPp9f3NPTw+6addAItASBYJ3LHsSOj0OAOAnC5xZP5HK568N6/omjIboMjUClUjnVdd17EPHMuNCIlSCBUOyJyffCa3wvLiF1ORqBmRBwHOdqInLidsiUBEGqbdFKhjN1qf49LgQcx7mViKy4yqsvJzGCBJXwKGLMVjtLSXSILrNxBJRS7L6PR42rG88VLmXSBGFpnvfdiA1IKe8IJ5pOrRGYHgGl1Gd9d3Z9STsgTYMg1VYi4nd933sDYfS39AuiEZiMQKVSOdv35dhHRB9NA53UCBKsS0YQsV9KOZBG43QdswsBpRQTYyUipmYKNlWC1HXXowCwVkr51dnVhbo1SSAQTKd4SnV2EuUfrsxWEaQm08MAcLuUcjjthuv6so9AK4lRQ6fVBKnJsQkR1xqGsTH73aYlTBIBy7I6uru7/xwAWjJiTG5bFILcBwAfTgikLQCwPp/Pr+/p6WH/djrMEQQqlcpJ/g3SGwDgBiJi9xNJhHsB4KowBYcmCB8AIiK78R0MU1HItLuYKK7rru/t7W341mLIOnTyDCCwatWqxa7rVonhm5RakJBIY7zzxZ6REfHWMHVEIohpmlalUrmQiCq+A/hzw1QYIe13AOA7IyMjGy3LmlP+LCJg1RZZLMs6oru7+0pE/FgK27U/RMSVhmFsi2IbITJBuCeGhoa6xsfHy4h4Ywo9w1rCG4UQ9xWLRW2vNwXA466iUqlc7nkeT8+vBIDj4i7/kPUDomUYxhdqf0+dILWKHcfheWM5jUYHdT7FZPE8b2OpVHokaaB1+dERKJfL5wshmBAcT4teUqic24joFtM0H6jP1TKCsBC2bZ+CiLwuSUwvZhqIdgDAI+yX23f7/IBpmrx+0aFFCNi2/TY2kMBXsQGA4+kpi7IaEW/x1cnfmFxvSwlSE0Yp9XEA+BwAtMo/+WNE9DAibpZSRjL1knKHtn11SqnLiGgJIl7UisM8BhAR+YhgyDCMaQ0aZoIgLKy/04WO4zBJbkpamayBt2srIm51XZeH3a2zwRdiA21OLMng4ODbEXFxLpc7j4gWAwDHlgVEfIKIhqSUX5tJiMwQpCZof3//Wzs6Om4iIiZL50wNSOl39vTKVzK3ua67tVAo7CgWi+wAU4dJCFQqlaPGx8dPz+VyTILzAjKwk9IsBPZpObRgwYKhZcuWNeS7PXMEqZt2ncUkQcRPZgHZKWRg0vDCn9czO3K53I6JiYmn5ooRCjZykM/nT3Ndl9cLtcgL6qyQ4aAuQ8QvI+JQ2KvdmSVIHVGWsn1U3v/OKFEmi/U8IrJF8Gc9z+OrxM8Q0bMLFy58ZtmyZeNt0oaqmOvWrSvs2bPnZER8JxGdLITgy0b8zJb6T2qHthDRt5kcUdeWmSdIrRMcxzmDiK4DAI7cUe0YfsuECYjDz68T0esAsJc/hRCve55X/T46Ovq6ZVn8HFuwLGt+V1fXfD4dFkLM9zxvvv9ftfqdP/15OccTmQhMCAA4MbbK0y3oWd9lwTAiDhuG8S/NVN02BKk10rKseV1dXVWiIOLlzTS+TfLu92/BjQEAf9biGCLuJyKO/BvvyHT4W+adRMTrto5g/cbP9d/bpMnRxCQiPgweHh0dHbYsi1Wbmg5tR5D6FjuO8/66USWTc9+me0gXMBMCvBasjRahzNnOVDD/3tYEqTVwYGDgyFwuxyPKFYi4hIhyjTRep2lPBPxDPZeINvs6ff/kuu5wX1/fK0m1ZFYQZNKo8g7/7GIpACwJ4rykwNPlpooAT5k2c/TPVDYZhvGbNGqfdQSpB439iwghlniet5RHFl6MpgGqriM2BHjzYrMQYpPneZtN09wZW8kNFjSrCVKPQX9//zGFQoFJUhtd3tIgRjpZugjwpTceKTaNj49vXrlyJRuUblmYMwSpR5hdKAghLmDlOCK6wFdY5FhoWS/M7Yr5bGgLIm5h5VHP87aUSqXXsgLJnCTIZPBXr169cGxs7GJEvDAgS6uUJrPyXiQtx3YmBRH9uKOj46EVK1bsSbrCqOVrgkyBXI0wQoiLiOhiADgrKsA6XxWBxxHxIc/zHs46ISb3lyZIA2/wunXruvfu3ftuIqpGRDyVP8M6mG+gqnZOwlOlpzkS0dNCiOrnyMjI05ZlNaQYmMXGa4I02Su2bVeJwqQJCFMjUWqW/JpsQtjsLyNi9eWvJ8JsNTauCRL29Wgw/dDQ0Fs8zzuWiPiE/6BY97e3AsBRDRaZZDIPAHYj4u/5sz4iYvW7EGJ3Z2fn7uXLl88pIxhtSZBVq1a9FxGfnw12sCzLynd1dVUJJIRYyD7yiIhHH/aV14WI1U/P8w76HvxeS8fk4WnMaF088B0Rq89EVP299h0A+E7LbsMwXkySfe1cdtsQRCn1Z4h4FRHxTlP1vy4i8rbgViL6aqlUerKdO0LLnk0EMk8Q1rPK5/O3+5eTrpkBwrKUsjebMGup2hWBTBMkcM0b5k6EJkm7vokZlTvTBFFKPQgAfA7RcBBCnKMd7jQMl044AwKZJYhS6jO+UbkvR+jBf5ZSXhohn86iETgEgSwThMnBJAkd2NK3aZr/GjqjzqARmIRAVIKwbn4Ykzyh1waO47CuDlvZCx2I6CrTNNnlgg4agaYQUEqx5c9SiEL2s/FqvhT/RyEyfd0/af0vIdKD4zh8F+CIMHnq0ppSShUxr86mETiAgO82+h8CNwuNovJrtG37J4j4gUZz+Avth6SUl4RID0qpZ5qwXvJpKeVdYerTaTUCUyEQdqOIiH7KI8g9gfmdhlFlW0qmaf6q0QxKqe82YdT6A/5CnT1P6aARiIwA69kFNs7ClDHMI8gq36ZTT5hcvimaASnlykbzKKVsX31CNpq+Pp0Q4mhtGjQKcjpPPQJKqX7f5BJ7mWo4sM1frFQqH/U8j704hQm7CoXCOStWrGCFuBkD3yf3VUt+EUGZ70Yp5d/OWIFOoBE4DAKBa46fhn3/hBD/GQOvonwtMpTFEPZVyK7YGu0ZpRSrl3yr0fRR1johytZJ5xACSqk7AeBTIZu8b2RkZAFypogF7BJCXFosFtl2bUMhBEkek1Ke01ChOpFG4PCjx8cQcUMEkO6SUn66RhA2/8mL9bDhKSllKA9C7NdwYmKC54NcJ3sjqg9sTe+rUso7wgqi02sEJiOglHqX7/qNvSRHMRF1vZRyuEqQwcHBN+dyOTYMfHwEmEOTpFaHbduLEJEtkvwvAHhU32WIgL7OMi0CSqnnIlqu3+m67hm9vb2vVgkSTLOKAOBEwZvdnRmGwTaqdNAIZAIBx3E2sVu4iMIYUsoK5z1AkGCxzlOc90Us9JtSyj+NmFdn0wjEhoA/tfoGAHwiYoE/HxkZeb9lWf/P0n59IXzTDwD+R8SC2Tfh3aZpht0tiFqdzqcROAQB27bv8q9w/0UT0Hyy3t/hQQQJplrsl6GZ6dL3AICHKNbx0kEjkAoCvp4VO2LiJUIzbsg3SSkP8lNzCEHK5fIHfFOe7IA91LnIJBTYXZnvqtpgsuigEUgUAcdxriYiJkcz3speY08Cpmmyg9cD4RCC8C/swpmIVjfbqrCHic3Wp/PPPQSi3PGYCiUi+pRpmndP/m1KggRTra8DQByL7nuJaMA0TbbhqoNGIBYEgiMC1q26qtkCEdExDGNKXcFpCXLbbbed0NHRwVOtU5oVwL+kss/3uzewffv2gQ0bNrgxlKeLmKMIXHPNNblFixb1+f4cmRzNLAOqCCLiRsMwPjwdnNMSJJhq8dyOj+njcoPGauusCfz9Odq/utlNIKCU+lCgkcsuLuIIT7mu+5He3l6+rzRlOCxBOEe5XL5CCPFNAGAXw3GFdYi4tlm3vnEJo8vJNgKVSuVsz/M+CwAc4wpPCSGunUmXcEaCsDS2bfMNwm8gItufjSuwG+S1+Xx+bU9Pz7QMjqsyXU77IZAQMRiIhsjBCRsiCCd0HOc8z/O+jojslD7O8CqPJp7nrTVNc1ecBeuy2hOBBIkRihyhCBKQ5AwAuD2qhZIZuouNLq9HxPWGYWxrz67VUjeDQLlcXiKEuCGkYYWGq+Q75rlcbtlM06r6AhseQWqZLMs6oru7mw9l/rJhycInvJfJwurG4bPqHO2EAFvE7+7urpHig0nJztdnu7q6+m688Uae2jccQhOkVrJt238phHCaMOczo5CI+AQThYi+rVVXZoSrrRKwaohvROFaImJyvCdB4X/NO19R/9lGJgg3qFwun5/L5ZgkkYzChQBlAgA2EtFG13Xv6+vreyVEXp00Iwiwdf9cLvdhRLzSv8jEMZ+waMOu6/b19vYySSKFpgjCNQZTrr8GgBWRJAif6RVEZEuLG994442NlmUxeXTIKAI8hXrTm95UJQQR8YHckSmIyv9Avyil/Jtm62qaIDUBHMe5gog+DwBpul1mjeEH2Se3EOIhwzB+0ywgOn/zCDiO8w7P89gVN88s+IigGSXCUAIhIhsG+aJhGDtCZZwmcWwE4fLvvvvueS+++OLnEbElzm98O76/8A1J8Gkrgzs2AAAERklEQVT9/Z2dnfeHXZDFAehcLGPNmjWd+/fvvwwALvM8j69Qv7cFOPwOAP46bnsGsRKkBopvzvSDiHiL/9/9ohYAVV/lQ/7dFnbrtg0Rt0op2YmlDk0ioJRih6aLEfE8AFgc1u9Lk9VPlf1rrut+8XAqI1HrTIQgNWGUUjX1gLOjChhzvueYKJ7n8TnL1sm6/zHXNWuKs22bSbBYCHEeE8O3PPP2LDSObSHwuZxhGHwskEhIlCAZJko9mDxXfQoAdhDRjkKhsGOuqr4MDQ2dPD4+fjoisiknjqcFn4m8fE0U+jATI+rWbZh6UyFImxClHjc+TNqBiEyapxFx58TExM5cLvfCvHnzdrbr2obXCvv27Tvedd0T8vn88UTEJmFP9c+ZaoQI4ycmzHsWV9ptRHS7aZqR7SaEFSRVgtStUf5CCHFdE2ZZwrYz1vRE9BIivuB7zdpJRDsRkReILyMi//2lsbEx9ln+UlrnNXy+AABHd3R0HEVER3NkO7REdBwisq0zJsMJiMh/b7vAUynP84anuvGXdGNaQpBaoyqVygc8z7s+sLJY9Zc+y4LHxGGyBJFNyez3d/n2ExHHMX7mv9U9s3WYTv+CWQd7/qo9I2L1OfAGxr/xy14lgr97I2YZbtwcxm1YCHFPsVhkw9MtCS0lSN3U61gmiT+duR4ReRGowxxFwDecsNWf9rEZ3OEs7DpmgiD170Jwa+wq9k2IiMfM0fdkrjV7J2tGCCE2FotFNjuVmZA5gtSQWb169ULXda/yPI8v5XOcjdOIzLwILRDkdSYFxwULFmxctmzZSAtkmLHKzBKkXvKBgYH/kMvleERhosR1H3lGcHSCRBDYyIYSWPE0C1OomVrYFgSpb8SqVavO9DyPT+gvIiL+TEP5bSYc9e/TI/ACEbFGw4N+vz3Y29vLFtfbJrQdQSYj6zjOnxARX7T5TykrSrZNJ6ctKCI+4utkPeBfg7i/VCo9knb9cdbX9gSpB8N3SMqOUi5hnyN8RyXQJtVrlzjfmEPL8libmklBRFtGR0d/ZFnWH5KtMr3SZxVBpoJt1apViycmJi4QQpwfXOziLWUdoiOwOxghHsnn81tuvvnmg2zZRi82mzlnPUEmwx5c9TwXAM7iSESsmv3vs9k9LZfqxcA78eMA8DgRPTrXrj7POYJM9crZtv02RKwnzFkJmDdq+dt+OAH8u+Fsm+zxGiGI6HFthimEXaxM924CwrFi3xtvvHFcoVB4m+d5rNN0XO0z0HFiB6THBaofCUgQW5F7fYuEbG+MI+uM1Z6rn4i4q7Ozc1e7KmDGhtI0BekRpEmE16xZM3///v1HTkxMHJXL5Y4koiOFENVP3oJGxNpzt2+XuIN1rFinyrd4X32u/xs/B+JUdbRYP8u3yDEW6Gkd9DcAGCGiV4QQL3uex3ewX6495/N51mN6ee/eva9YlpXJA7gmYU8t+/8FY6JD+aIM+p8AAAAASUVORK5CYII=;" parent="1" vertex="1">
          <mxGeometry x="460" y="299.5" width="53" height="53" as="geometry" />
        </mxCell>
        <mxCell id="HXg6kgFIzx5bsLZ2JNcb-25" value="" style="shape=image;verticalLabelPosition=bottom;labelBackgroundColor=default;verticalAlign=top;aspect=fixed;imageAspect=0;image=data:image/png,iVBORw0KGgoAAAANSUhEUgAAAMgAAADICAYAAACtWK6eAAAAAXNSR0IArs4c6QAAHexJREFUeF7tXXuYHEW1P6dnIpBcDIi8FBAV8QEIeFERuQgiPpCHPIwoKiIiF0G57E6dngWV8ZHsdHWygYh64aKiV3xE7gVBVBQfCIgREVBBFJCgoAiIAsmCZGbqdvHN5m42u1OnuqunezNV35d/0qfO49f12+45XXUOgh8eAY/AjAigx8Yj4BGYGQFPEL86PAI9EPAE8cvDI+AJ4teARyAdAv4Jkg43P2tAEPAEGZAb7cNMh4AnSDrc/KwBQcATZEButA8zHQKeIOlw87MGBAFPkAG50T7MdAh4gqTDzc8aEARKQ5DFixcf2el09gWA7QDged1/mw/IfRj0MP8OAH/o/rs3CIJra7Xa/5YBlEIJEsfxVgDwDv1PKfXyMgDifSgHAoh4AwB8Rf8TQjxQlFeFESSKomMR8RMA8Nyigvd2ZwUCdyGiEEJcUoS3hRAkjuOlSqn/KCJgb3PWIvABIvpsv73vO0GklN8DgIP6Hai3N/sRUEp9LAzDRj8j6StBoihqIOJZ/QzQ29rgEFhARN/oV1R9I4iU8r0A8Ll+BebtbLgIKKUOD8Pwsn5E2BeCSCkPBoAr+hGQtzEQCPyAiF7Xj0j7QpA4ji9QSp3Qj4C8jYFB4EQiuiDvaPtCECml/hC0Wd7BeP0DhcCPieiAvCPOnSBSyrcCwHJGIH8GgGa73f41Q9aLbMAIVKvVIaXUoaYQ2+32ASMjIz82yWW53g+CnA0ApzGc7MtfBIYfXqRgBKSUhwDA5Qw3ziGiXL+n5U6QOI4v4/w1AABPEMaKGBQRKeX3AcD0Q/w3RLRbnpjkThAp5W8AYBdGEBcQ0YkMOS8yAAhEUfRZRPx3U6jtdvu5IyMjK01yaa/3gyDjALCJyUFErAshIpOcvz4YCMRxrH+HLDFFGwTBW2u12sUmubTXcyXI6OjojpVK5W6Oc0qpt4ZhmFugHB+8THkQiKLoMET8JsOjs4jo4wy5VCK5EsTyA+GeRHRzqij8pA0OgcWLF7+k0+ncagpMKfW1MAzfbpJLez1XgkRRJBBRcpwbHx/ftNForOLIepkNH4FGo/G0uXPnPgwA83pFi4i3CCH2yAuRXAkipfwCALyH4fz9RLQtQ86LDBACUsqbAMC0+J8koo3ygiVvgvw82YNlPCmolLo2DMN/yytIrl79WK/Vardx5b1cvghIKfUHZv2h2TR2IqK7TEJprudNEP3K1PMR2XX6QiI6Pk0AruZocqxZs2arvL/MuvK3H3qklEcl3xn+px+2prMRx/EipdQIw/6hRPQthpy1SG4EsclgIeKHhRALrb13NKH7g3B5u90+1RPk/0GVUiql1BFhGF7qCGorNRZHJEIiYv3WtXIAAHIjiGUG6xgi+rqt8y7kJ8ihP2b2Y2+PC5/7pUMTBADaSqkj+3X+YnJszWZzvyAIrmbEm9sbSG4EsclgBUGwV61Wu5EBhFORyeTQij1B1oW3SxD9n092Op0j6/V6X8/0RFH0LES8j3HTVxDR3gw5a5HcCGKRwYJOp7NZvV5/xNr7DBOmksMTZH0wJxEElFJPJCnVI5KF+N0MsFtPjeP4XqXUs3tNRMRHhRDzrZUzJuRJEFYGCwAeJqItGL46E5mOHJ4gvQnSvboaAI4kIl14oy9DSvlDADCe+6hWq9sNDQ1xnjZWfudJEFYGSyn1szAMX2XldQbhmcjhCcIiiBZ6FBGPEkJcleE2sKcmr1nnJ69Zxk2sSqnXh2GodwA7HbkQxCaDBQBfTnLY73Ia1QzKepHDE4RNEC34d6XUUWEY/ijv+yalpGSzq3ETq1LqtDAMl7n2JxeC2GSwELEhhPiY68Cm6jORY4IgefjR79Rxs9ncQSml6xtnGpVKpRcB/gYA+jsJJ8uU2o8oio5ERM63mP8kopNTG5phYi4EsclgKaXeGYbhRa4Dm6yPQ44c7f9DKbVLGIb6SHFuQ0r5Rn3ACBFfp5TaPTdD6yrWNXOPJqJr8rI3Nja2W6vV+hVD/9VEtD9DzkokF4LYZLAQcW8hxAorry2ECybHhKeXEtERFm6zRZcuXbpZq9U6q6hSrkqpv1Sr1aOHh4d/ynbaQnBsbGyTVqulzxSZxgNJadKtTUK21/MiCDeDBa1W65lnnHGGflw7HyUhx1NxIeJpQgin78hRFL2lW6nStKHPObZTFOpUrD7P87M8DCWFP/S295eYdAdBsGWtVnvIJGdzPS+CsDJYADBORJy9WjYxPSVbJnJMOI+IuwshOK8LxnillHqXtN4tXYqhlPqj3lgYhqH+4+h0SCl1rxDOE3g/1697zglimcG6MdlktpdTNEtKDh2jq13LURSdioifco2bA313d4/AOt0VEUWR1C0QGP6dRETnM+TYIs4JYpPBAoCvEpFuoONslPHJMSW4TxLRR9IGLKWsA8Bo2vl5z0uSLnd2Op0FIyMj+iyHkxHH8YlKKePCV0qdHYbh6U6MdpU4J4hNBks30BFCfNRVQLOAHE+FiogHCiH0F2KrIaXUDYc+bDWpAGGl1O+VUgvq9fotLsxHUXQAIhrxQsQrhRA6m+dsOCeITQZLKfWeMAy/6CKa2UKObqy3j4+P79JoNDrc2KWU3AJ8XJV5y/0WERcIIXTZp0xjyZIl27fbbf0bxzT+REQ7mIRsrudBEHYGCwD2JaLrbByeSVZKqR+tYy509UkH+8OWlFK3jdDtI2bVQMRhIYSTexJF0WOI+C8mAFzXNsiDINwMFqxZs2abM88886+moLnX4zh+pVJKH9N0+leEaz+FXM9zMOedd96cRx999CtKqaNT6C5silLqr91XrJ+4ckJKqb+zGPfsBUHwilqtphuAOhlOCWKTwULEthCi6iSKSUoajUYwb968i5RSx7jWnYO+hxBxl+m6uI6Ojm5eqVS+BgCvz8Funiq/Va1WFwwNDT3u0ojFU/Q4IvqSK9tOCWKZwcq1rqqU8oMA4PTDnCvQJ+tBxIuFEOsUJui+c+snYS6HgPKIQ+vMc19dHMcjSqlFDN+bRMQ5x85Q5fjIrU0GKzni+g0iWsDyMqVQ95Xrq9xW07pJZEpTa6el7MF4KhF9WitxlGy4VSmVuUqlRSy6/8s7iejbWfGbab5FG43LiOhwV364foJw62DpvzajQogzXAUykx79Hv/II49ov4412XJx5DaKoqWIaF2SPwiCXSZKDmUkya1BECxwUb5o8onCHtj9EBHfPt1roglvm+ujo6N7ViqVXzLm3EFEOzPkWCKuCWKTwTohScl9nuWlAyHOK5cLgmhXLSraT45snfYPKUnijBzdOHTRhl5jMRFxvnBnvoNRFG2qj9ZyFI2Pj89pNBotjqxJxjVB2BmsIAheU6vVnGU5TIHq681mc58gCC4EgBdMJ++KINwPW1N9mPoOb0kSp+QwEETvrn1vvyvRSCn/BADbme51p9N5ab1ed9KpzBlBbDJYOkB9ED/vMxLTAdloNDaeN2/e+Uqp9U4xuiKItmtR9Gyqm/tPPoTEJIlzcsxEkOS8ybWtVuu4kZGRP5gWquvrcRx/Wyn1JpNeRHybEILT9s+kyl1dLMsMFhCRM3Iao5xGIGksqtvC6a/Ta4dLgnQXmM7H227GXC+7ZyBJLuSYgSCfIqIPpcHbxZzkNWtJ8po1ZNKlky1hGDZMcpzrzhapTQZLb2hLThFO+5rDcdqVjJRS1wPWm+BepHW6Jkgcx69KiglYHyRCxHOFEDpNvXbMQJLcyDGFIG0AeB8R6dfTwoaUUh+p/YzJAf2xOAzDt5nkONedEcRmD5Zu0EhEh3EczFsmjuN53Z2i73BNkO4i05sx06SP9VHWdc5iTyFJruSYRJAbEPF9rs6xZLmfURQdhIickkO/JqKXZrE1MdclQdgZLESMhRC6WkVphm751Wq1fplHgYU4jq9RSu1rGez9rVZr16mnLSdI4iqV28snKaXeL2bsE2gZV2rxpUuX7rhmzRpOx7IWEc1JbWjSRJcEYWewAMD5wRYXYIyOju6fB0GWLFmyZ7vd5uTw1wljpu5Jg9ymgfltRuO4MxHdkXVdOCGIbQYr7XmIrMEWOd/mN9pkP3WnVyHEeUX6Xibb3G9MSqnDXRTcdkIQ2wxWp9N5Tr1e5+zvL9O9yeyLlFK/Px9kqUhXV9dlg35nOW+DFI+i6KuIyNmIOkJEzawgOCGI7V/HolO8WUFLOz+O412TioRpPmBdlZybsSVWWjdLPS+Koo8gIqer7ZeI6LiswTghiE0GCxH/JISYLec1suK73nzOlpfpjBbdZMg5ECkVxnF8jFJKb0A1jRuSzZOvMAmZrrsiCDuDBQDfI6I3mBzbkK9LKS8DgENTxOjsBGYK26WYEkXRXohoPBCFiKuEEJtmddoVQWwyWOcQkfVu16yBlml+8h79QkTUPeE3tvTrZiLa03LOBiWuK0muWbNGb683jkqlssPw8LDev5V6ZCaIbQZLKXVKGIbGr6GpI5olE7mlbKaGg4hnCyGclraZJZCtdVNKqXf1Gp8OnU7njfV6/cos8WUmiG0GCwDe0M8GLFnAcTE3iqLGTPuCLNocr+NK8vR5ixDimy78m406ki/q1yVf1Pcx+Y6Ipwsh1tlvZ5qz3h8k2wlT5W0zWO12+/lF7ATNGmea+VEUnYOIH5pp89zo6OjzKpWKrkK4maX++zqdzi79bltn6WNu4voLv/7YzDBwPhFx5GZU5eIJwj5FqL0YlBRv97jv2mLOM5EkQ43dvjUeYizEvorEcXyqUopTevUaItovi3MuCGKTwXqQiLbK4vBsmSulvAsA1mli04Mkunjeu21j624i1DWzBmp0e6F8hxH0Q8lZ/y0Zcrk+QdgZLKXUT5K2Xa/J4vBsmCul1LVzdQ3d9cZ0JNFVTDqdzgql1LaW8f1T93dPWthpMg7MGB0d3alSqbD2WSHi1lnOy2d6gthmsACAXU1wtt7tZrO5WxAEPVscTEeSKIqORcQv28atlLoy6cvhtB6trQ9FyFtsWlznhKatr5kIYpvByqOJjG3AectLKX+RnHf5V5Od6UgipdSbEt9vmjv1OiLWhRDGRpe2essszz2fnlR5PDkMQ/2jPtXIRBDbDFYQBAfXajXOu2OqYIqeFMfxmUqpT3L9mEqSJDuzTVJJUZ9AfC5Xx4Rc3q3sbP3JW15KeQUAHGyyg4jLhBD6eHWqkYkgNnuwut452aOfKtKcJ0kpn58UT7vT1sxUkjSbzQVBEHzdVk+ydSWXZkQp/OjLlDiOm0qpkGHs+0SUunxrVoLYZLBACBEk1fpMtZYYMZdPJIqi7yGi9Y7bbkemdaogSinPBYBTUkTZtzpVKXxzOiWO43cqpf6bofQ+IjKWCppJT1aCsDNYAPAYET2dEdCsE+EWE5gmsCVEVJv6/4sWLdqiWq3qmmHGxpVT5yLiIUII/fqxQY8oivZGxOs5QY6Pj89vNBqsonPr4ckxMJ1MigzWCiKaVcWYOdgsXLhw2zlz5uhz0htx5CdkdH0pXQX99NNP/8t08+I4PkIppZtX2o57uhXjV9tOnE3y55577hbj4+OsjrZZfp+lfoLYZrAA4EIiOn423QSOr1JK3aLAusQMIh4phLikl420dX6VUl8Mw1B3wd2gh0Wq9/i0JYtSE8Q2gwUAIRHJou9YtyqIrie7f0LaHYvwBxEjIcS0HxIn+7Ns2bKnP/HEEz8CgJcV4ec0NlckZVsvIiLONo/cXZZS6tOZuzIMSSLi/KBfT1VqgthmsBDxMCHE5YxgchNhlvHMzX5X8fXd3bgPcAwl31UO0XXEOLJ9lMm9dQUnFinlVwDg7SZZRLxcCJGqDlsWglhlsJJqdy9Jqt391hRMntf11nOLnhe5uJKm2oZFn/BcfJ5B6VIiMpYBzdMhi6Y6dxHRTml8yUIQmwwWzJ8//2knnXTSmjROupojpbwXAJ7tSl8KPake9WNjY5u0Wi3dBrlMSY7rk3M9xjMZKTBiT7F5uo6Pj2/UaDSeZCvvCqYiSIoM1pNEZJXlsQ3EJL9o0aItq9Uq67XGpCvl9RtardabplZK5OpqNptvCILgu1z5fsgVfXShe3T5dk6snU5njzR921MRxDaDpZS6JQzDPTiB5CWTFErQP3T14aSixqFE9K0sxqWUCwEg965cXB/nzJnzrJnS1FwdWeSWL19eWblyJatRTrcLls44Wo1UBLHNYM1UQtPK04zCRRJEKTUWhuFwxhCg0WhU586dq1+1dFX6wkcQBHvVarUi/+jobl6PAADnA/THiegsW9BSESRFBuujQohP2DrnUr6oVyxEvGn16tWvbTQa/3ARTxzHr1VK/cCFrqw6KpXKC4eHh3+fVU+W+VLKawHg1SYduqlpGIbrdBM2zdHX0xLEKoM13X4jjnOuZaSU+qu13jHbt5G8Xh6RvF5e6tJgGbJxSb+Qe4loe5dxpdElpfwsAHAq0N9KRJxvJuu4kZYgVhkslz3j0oA4MUdKGQPAenufsug0zE2VteL4E8fxd5VShRXgU0p9JgzDNBsqOeGxZaIo+gAiPtVC2zA6RFQxCU29bk2QFBksqFarc4eGhh63dc61vMVZZhemr5k/f/6BeaW2uxUG9asW5/3bRTxrdSS1zR5ExFeV4ahvt0sYqxls8lv4RbZFwK0JYpvB0qgWnQ6cvDp0oxyl1BKnK2Z9Zbl3f9ImpZT6ndpJs0oLPG5ut9un59FHxcKHtaILFy7ces6cOfdz5gZBcEStVrN63bUmiG0GKylVf7sQ4sWcAPoloxvl6N9FiGi9ndzko1Lq6kqlsrxWq91mknVxvfuxTFdEyVS9w+SLLpXa6XR0E6BLk4zcYyb5fl632LR4JhEtsvHNmiC2GSwAuISIjrRxyst6BGwQkFLqXjOchIF1LbE0BLHKYAHAIiI60yZgL+sRsEGAez49zbHkNASxymAh4ruEENblbGwA8rKDjUAURU1E5GxnHyeieTZoWREkTQZLl8BJWj5bN7C0CcLLDjYCNjXFgiDYsVar3cNFzIogaTJY8+bN2/SUU07RTx0/PAK5IDA2NrZbq9XqWaxvwnCn0zm4Xq+zS09ZEcQ2g6WdKlOKN5e745UWjsDy5cuftnLlSl2G1TgQcVgIMWYU7ApYESRFBmslEVkXQeM67+U8AhMIWKR6LyCiE7nI2RLEKoOllPpOGIbG6ndcZ72cR2AmBKSU+hVrNwZC1xHRvgy5p0RsCWKVwXK1zZsbjJcbXASklBcBwDsYCDycFJ3YgiFnR5A0GaxB7V/BBd/LuUNASqmrxOi2E5yxLRGxtqewnyBpMlidTufV9XpdF2P2wyOQKwJxHL9ZKcU6sZn0qXlt0qdGl1MyDjZB0mSw2u32M0ZGRlgte42eegGPQA8Ems3mDkEQsL5v2HRaZhMkRQbLp3j9ku4rAtxMFiKeK4T4IMc5G4JYZbCSU173E5FtSzGOz17GIzAtAlJKfax5PgOeHxDR6xhy/CyWlNIqgwUAPySiAzlOeBmPgAsE4ji+RinFSeH+mYhY9dFYT5A0GazkfMKn2+324qLq37oA3OuYVQisrFQqBAAnc7weHx/fnFNIg0WQNBksjpNexiNQFAKIuI8QwthfhEWQNBmsogL3dj0CTAROIKLPm2RZBEmTwTIZ9tc9AgUjwGpXxyWIbQar4Ni9eY9AbwQQ8QohhG4t0XNwCWKbwTLZ9dc9AkUjcDcRPc/khJEgKTNYJrv+ukegcATGx8c3aTQaT/RyxEgQn8Eq/D56B3JCoFKpvGx4ePimTATxGayc7o5XWzgCiHisEEK3cZtxcJ4gXwCADb5jauF3yztQBAKfJKKPZCWIz2AVceu8zdwR0H3owzA8KitB2BksRPxOp9O5qNPp3Jd7dN6AR2AKApVKRbf11ke8uX1AfktEPcvP9nzFGhsbe3ar1dKNL41DKfWxMAwbRkEv4BHIGQEppS7ozSKJqepOT4LoIs+VSoV18spkKGdMvHqPwFoExsbGdmq1WndwIGm32wf0qlTviiBXE9H+HIe8jEegHwhwD0/1iyDXENF+/Qjc2/AIcBAoFUEQ8VohRCk6r3LA8zIbPgKlIohS6qdhGBo7jW74t8VHWBYESkUQALieiPYpCzjeD49A2Qiygoj29rfFI1AWBMpGkJ8T0SvLAo73wyNQNoL8gohe7m+LR6AsCJSNIDcS0V5lAcf74REoFUGUUjeFYfiyMt+WKIoaiHiWCx9tdw0UaXsiXu6CMeGTZktREba5Nvv1ofBmItrTBG6R14tcpEXa9gTpver6RZBfEdHuRRLAZLvIRVqkbU+QchDk10T0UtMiLfJ6kYu0SNueIOUgyK1EtKsLAixfvrxy991374eI2yDiqk6no3/fsLbc97Jf5CIt0rYnSDkIchsR7ZKVIN2FNAQAm07WhYgXt1qtkZGRkTvT2ihykRZp2xOkHAS5nYhenHbx6nlSyksA4C09dDyslHpzGIY/S2OnyEVapG1PkHIQ5HdE9KI0C7dLjmUAYGxogogPr169eutGo9GytVXkIi3StidIOQhyBxHtbLtotfyiRYt2rlarv+POVUrVwzCMuPITckUu0iJte4KUgCCIeKcQ4gW2i7b79DgNAM62mGvV53oyQSxs9BS1PXuvCVKU7UGNv1QfCpVSfwjD8PlpFkEUReckr04fspj7EBFtaSHvRQcQgVIRBABYhYCnu09RFC1BRJ254g5PEC5SAyxXNoLcQ0S6JpH1iOP4BKXUBdyJiHilEOKNXHkvN5gIlI0gfySi56S5FWNjY89otVp/485VSr0vDMPPceW93GAiUDaC3EtE26e9FRYFsq8iooPS2Cnyh3KRtv2P9N6rpS+bFRHxPiHEdmkW7sScOI6lUkr00PHzVqt1yBlnnPFgGjtFplqLtD2BFfcvqglbv919EkLcyopKqb+EYfgsE7im61EUHd3NaE0uIXQPAHyeiD5umt/repGLtEjbniAleIIAwP1EtG2WBTx57rJly56+atWqbSqVyqowDP/sQm+Ri7RI254g5SDIA0S0tYuFnJeOIhdpkbY9QcpBkAeJaKu8FrcLvUUu0iJte4KUgyB/I6JnuljIeekocpEWadsTpBwEeZiItshrcbvQW+QiLdK2J0g5CPIPItrcxULOS0eRi7RI254g5SDII0S0WV6L24XeIhdpkbY9QcpBkMeI6OkuFrLX4RFwgQD3w2i/vqSvEkKsc47cRZBeh0cgLQKlIohSajwMw3lpg/HzPAKuESgVQQDgcSKa6zpIr88jkBaBshHkn0S0cdpg/DyPgGsEykaQJ4loI9dBen0egbQIlI0gLSKakzYYP88j4BqBUhEEEdtCiKrrIL0+j0BaBLgEQcTdhRC/mskO9nKg0WhsPHfu3McZTqrkvEbAkPMiHoG+IMAlSLVanTs0NDTjGu9JEB2JlPIGAOB0j9qWiO7vS/TeiEegBwJLliw5sN1uX8UA6T4i6nkS1kiQOI4/rZT6AMPYSJLJajLkvIhHIFcEpJS6qMd7GUZ+TEQH9JIzEiSKouMQ8UKGsUcA4DoA+Ea73V7JkPciHgGnCFQqFV16SrfZ45agCpPvdzIrQV6MiLc5jcQr8wiUAAHTD3TtovEJ0v0dcjEAHFWCmLwLHgFXCKwgor1NyrgE0VVGfmJS5q97BGYRAscn1UCNPx1YBOk+RT4DACfPIgC8qx6BmRBgFyBkEySKohci4vUAUOqTg35NeARMCCDiYUKIy01y7N8gE4pcnozjOOdlPAKuEUDE9wsh/ourl/0EmUQSgYg9U2Nc417OI9BnBHSFzhNsbFoTpPt75BQAONfGkJf1CBSMgPGj4HT+pSJIlyTvAYAvFBy0N+8R4CBwARGdyBGcKpOaIFpRs9l8cxAECwDg3WmM+zkegZwRuBEAziei89PayUSQCaNjY2M7tVqtYwBgOGnIWeryP2mB8vNmFQIruh0BUhNjIlonBJkMXRRF+kfQ9oh4OADsMatg9c7OKgQQcY1S6mEAmPj37U6nc0W9Xr/FVSDOCeLKMa/HI1AGBDxBynAXvA+lRcATpLS3xjtWBgQ8QcpwF7wPpUXAE6S0t8Y7VgYEPEHKcBe8D6VFwBOktLfGO1YGBDxBynAXvA+lRcATpLS3xjtWBgQ8QcpwF7wPpUXAE6S0t8Y7VgYEPEHKcBe8D6VFwBOktLfGO1YGBDxBynAXvA+lRcATpLS3xjtWBgQ8QcpwF7wPpUXAE6S0t8Y7VgYEPEHKcBe8D6VF4P8AbwElm7INWG8AAAAASUVORK5CYII=;" parent="1" vertex="1">
          <mxGeometry x="114.9" y="296.75" width="54" height="54" as="geometry" />
        </mxCell>
        <mxCell id="HXg6kgFIzx5bsLZ2JNcb-26" value="核心交换机" style="text;html=1;align=center;verticalAlign=middle;whiteSpace=wrap;rounded=0;" parent="1" vertex="1">
          <mxGeometry x="109.4" y="339.25" width="64" height="30" as="geometry" />
        </mxCell>
        <mxCell id="HXg6kgFIzx5bsLZ2JNcb-29" value="运维审批人员" style="text;html=1;align=center;verticalAlign=middle;whiteSpace=wrap;rounded=0;" parent="1" vertex="1">
          <mxGeometry x="-45.28" y="137" width="80" height="30" as="geometry" />
        </mxCell>
        <mxCell id="HXg6kgFIzx5bsLZ2JNcb-36" value="2.审批" style="text;html=1;align=center;verticalAlign=middle;whiteSpace=wrap;rounded=0;" parent="1" vertex="1">
          <mxGeometry x="-8.000000000000021" y="192" width="60" height="30" as="geometry" />
        </mxCell>
        <mxCell id="HXg6kgFIzx5bsLZ2JNcb-37" value="数据库运维管控系统" style="text;html=1;align=center;verticalAlign=middle;whiteSpace=wrap;rounded=0;" parent="1" vertex="1">
          <mxGeometry x="-40" y="345.55999999999995" width="73" height="30" as="geometry" />
        </mxCell>
        <mxCell id="HXg6kgFIzx5bsLZ2JNcb-38" value="数据库审计系统" style="text;html=1;align=center;verticalAlign=middle;whiteSpace=wrap;rounded=0;" parent="1" vertex="1">
          <mxGeometry x="96.4" y="134" width="91" height="30" as="geometry" />
        </mxCell>
        <mxCell id="HXg6kgFIzx5bsLZ2JNcb-39" value="数据库防火墙系统" style="text;html=1;align=center;verticalAlign=middle;whiteSpace=wrap;rounded=0;" parent="1" vertex="1">
          <mxGeometry x="263" y="357.5" width="81.33" height="30" as="geometry" />
        </mxCell>
        <mxCell id="HXg6kgFIzx5bsLZ2JNcb-40" value="办公网数据" style="text;html=1;align=center;verticalAlign=middle;whiteSpace=wrap;rounded=0;" parent="1" vertex="1">
          <mxGeometry x="449.42000000000013" y="354.51" width="74.16" height="30" as="geometry" />
        </mxCell>
        <mxCell id="HXg6kgFIzx5bsLZ2JNcb-41" value="" style="rounded=1;whiteSpace=wrap;html=1;dashed=1;" parent="1" vertex="1">
          <mxGeometry x="-357.57" y="101" width="210" height="100" as="geometry" />
        </mxCell>
        <mxCell id="HXg6kgFIzx5bsLZ2JNcb-42" value="" style="shape=image;verticalLabelPosition=bottom;labelBackgroundColor=default;verticalAlign=top;aspect=fixed;imageAspect=0;image=data:image/png,iVBORw0KGgoAAAANSUhEUgAAAMgAAADICAYAAACtWK6eAAAAAXNSR0IArs4c6QAADjBJREFUeF7tnVuMZFUVhtfuZjKKwQgBL2gMykUz4gWCwcEHIQrEC0SI4A0IoFEmEc6ummHEJ2big4RM+qzqSgbsiBABLxh4UNAAEeZFIDHcVIijGJCIEAk+iOnYk6mz7Y1VUNT0pf5dp3ft6v2ft5n59z7r/9b6p6uqq3YZ4UUCJLAsAUM2JEACyxNgQDgdJLACAQaE40ECDAhngATCCPAnSBg3rsqEAAOSSaNpM4wAAxLGjasyIcCAZNJo2gwjwICEceOqTAgwIJk0mjbDCDAgYdy4KhMCDEgmjabNMAIMSBg3rsqEAAOSSaNpM4wAAxLGjasyIcCAZNJo2gwjwICEceOqTAgwIJk0mjbDCDAgYdy4KhMCDEgmjabNMAIMSBg3rsqEAAOSSaNpM4wAAxLGjasyIcCAZNJo2gwjwICEceOqTAgwIJk0mjbDCDAgYdy4KhMCDEgmjabNMAIMSBg3rsqEAAOSSaNpM4xAbQEpiuJMY8xmETlRRA4JK4erJojAUyLy2/n5+dvm5ubmJ6huqNRaAmKt3SEiV0N3pnhdEHDO/XV6evq8mZmZR9eFoQETIwekKIrvGWOuWo9w6AkicKSqPg+tmADxSAGx1vqHUw+IyMaeV+fcn4wxL0yAd5Y4GoFjReSdfVv8UlXPHmbLZrN5QlVVx4vI0cPoV9M4516enp7eOzMzc+dqWvTfRwpIo9H4lnOu3btpp9PZ3G63H0KLoH4yCVhrLxaRG/uqP0VVH1zJjbX2VBG5S0QOXgPX96rqGXXuO1JArLW3i8i53YJuUtVL6iyOe6VPwFr7tIgc5Ss1xjTLsiyXq3rr1q2bOp3OE2vsaqeq+ufEtVyjBuR+EfH/I/ir1sJqccdN1pyAtXboGSiK4rrFh9+X9RW1p6YCfUBfCWk3qO8qy/K5OvZmQOqgmPEeSEAQLYK0+7DNB7V3naaqtYSPAUE6Qe0BBJChR7QIagYEoUVtVALI0CNaxAQDgtCiNioBZOgRLWKCAUFoURuVADL0iBYxwYAgtKiNSgAZekSLmGBAEFrURiWADD2iRUwwIAgtaqMSQIYe0SImGBCEFrVRCSBDj2gREwwIQovaqASQoUe0iAkGBKFFbVQCyNAjWsQEA4LQojYqAWToES1iggFBaFEblQAy9IgWMcGAILSojUoAGXpEi5hgQBBa1EYlgAw9okVMMCAILWqjEkCGHtEiJhgQhBa1UQkgQ49oERMMCEKL2qgEkKFHtIgJBgShRW1UAsjQI1rEBAOC0KI2KgFk6BEtYoIBQWhRG5UAMvSIFjHBgCC0qI1KABl6RIuYYEAQWtRGJYAMPaJFTDAgCC1qoxJAhh7RIiYYEIQWtVEJIEOPaBETDAhCi9qoBJChR7SICQYEoUVtVALI0CNaxAQDgtCiNioBZOgRLWKCAUFoURuVADL0iBYxwYAgtKiNSgAZekSLmGBAEFrURiWADD2iRUwwIAgtaqMSQIYe0SImGBCEFrVRCSBDj2gREwwIQovaqASQoUe0iAkGBKFFbVQCyNAjWsQEA4LQojYqAWToES1iggFBaFEblQAy9IgWMcGAILSojUoAGXpEi5hgQBBa1EYlgAw9okVMMCAILWqjEkCGHtEiJhgQhBa1UQkgQ49oERMMCEKL2qgEkKFHtIgJBgShRW1UAsjQI1rEBAOC0KI2KgFk6BEtYoIBQWhRG5UAMvSIFjHBgCC0qI1KABl6RIuYYEAQWtRGJYAMPaJFTDAgCC1qoxJAhh7RIiYYEIQWtVEJIEOPaBETDAhCi9qoBJChR7SICQYEoUVtVALI0CNaxAQDgtCiNioBZOgRLWKCAUFoURuVADL0iBYxwYAgtKiNSgAZekSLmGBAEFrURiWADD2iRUwwIAgtaqMSQIYe0SImGBCEFrVRCSBDj2gREwwIQovaqASQoUe0iAkGBKFFbVQCyNAjWsQEA4LQojYqAWToES1iggFBaFEblQAy9IgWMcGAILSojUoAGXpEi5hgQBBa1EYlgAw9okVMpByQHSJydc+MqhrEGLWTTaDZbB5XVdXenoupqamzZmZm7lzOVXYBaTQa5zjn7ugD8h8R+YaIPD/ZrX999VVVHTw1NXWciHwY9PWyiPxRRP4MrpsE+adFZPtAoUeq6rK9zy4gHk6j0djrnPPDwytvAleq6q6VEGQZkKIoPmqM+Y2IHJL3fOTr3jl3Q6vV+vpqBLIMSA+KtdY/H/mYiGwWkTevBov/PvEEnhKR+/xD7FardfcwbrIOyDCAJkljrb1RRC7u1vx3Efmuqs4hHqy1R3VfxOjtI1VVbZmdnb0e2We9aBmQ9dJJEbHWPi0ifsD99XNVPT/E3rZt2960f//+F0XkjX69MeaWsiwvDNlr0tcwIJPewb76rbV/EZFjun+1U0T2jGDP/zTqhe0mVb1khL0mdikDMrGtO7Bwa+2siFy+BpYuUNVb12Df5LdkQJJv0WsFNhqNa5xzm1Z49W2DiHy8Zkv/FpFHVtjzGRH5m6r6FzzW3cWATEhLrbX+OcHhqZbrnPtpq9X6cqr1hdbFgISSi7jOWnubiJwX8Zaht/qaqv4wdHGK6xiQFLvSV1Oj0TjGOeeffPeum/xDmoTKfvV9bSJys6pelFBtI5fCgIyMcG03KIriZGPMQ313OU1VR3l1qtaCB366/VpVP1PrDca8GQMy5gasdvtGo3GYc+6l1XSJ/PsuVb0ykVpqKYMBqQXj2m5ird0iIrvX9i6j715V1Umzs7MPj75TOjswIOn0YsVKEn+i/g8RuUZV2xOCc+gyBwIS/O6EwRsOfmCq0+lsbrfb/Q+lh65xUJjtB5y2bNly6IYNG947NTWVzLuQq6p6zjn3bLvdXgjuaMILi6K4zhhz2VqXuG/fvnfs3r37hTruk21A6oDHPTACW7du3dTpdJ7AVsHqHYufbPVvDarlYkBqwchNhiXQfTh0l4gcPOwaQHevqp4B6FeVMiCrIqKgbgLNZvOEqqqOX/xdz9F17O2ce3l6enrvSp+HD70PAxJKjuuyIMCAZNFmmgwlwICEkuO6LAgwIFm0mSZDCTAgoeS4LgsCDEgWbabJUAIMSCg5rsuCQBIB8WdqOefeZ4w5UUR4SmM6o+ffLPm4iDyoqj9Ip6x4lYw1INbac0XEvynvyHiWeacQAv70zLIsPxWydpLXjC0gjUbjJOfc7yYZXoa1P6Oq78nJ99gCYq31p55/oAfbOffo4rGldxtjhjrGMqcmjcurc+6LxpivDBwl+21VvXZcNcW+71gC0j3Ht//z1zvn5+evnZubm48NgPdbmUD3ZMjH+g7R86dDnlmW5T05sBtLQIqiuMMYc44HvPjVCT9utVpfzQH2pHq01vrvAvlVX/2rftXBpHodrHssAbHW+pPBe+/kvEhVb14vQNerD2utD4gPir+yOT51XAFxfYOU1Mki63XAR/U18LB4j6qeNuqek7CeAZmELiVQIxoQ/+nBqqpOdc69ta/8l6qqemCSDqNgQBIYvkkoAQmItfYXInLWCr4eXvzs/aWtVuv3qXtnQFLvUCL1DRuQwZfvVyr/oIMOetuuXbv+mYjFJctgQFLuTkK1DROQJV6+f1ZE3t2z4Zx7wRjz9t6fjTG3l2X5hYRsHlAKA5JydxKqbciA3L/4RUOndsueW1hYuGrjxo3/6gvE6c45f3C4/6pw/xL/f6uqekvKxxwxIAkNYcqlDBmQ1706ubCw8PgSAdkvIj5IvSvpVzEZkJSnMqHaGJCIzbDW8vcgEXnXcauQgPiT8xfPwfKn53+iW8OhIvIR/gRZpSMMSB0jG3eP0IBs3779kIWFhW1VVf2s3W4/OXiOrojwIdZgKxmQuMNdx91CA7JE7/2TeD4HWakpDEgdIxt3DwYkIm8GJCLsmm7FgNQEcphtGJBhKKWlYUAi9oMBiQi7plsxIDWBHGYbBmQYSmlpGJCI/bDW+qNkPuRvaYzZUpbl9RFvz1sFELDW+q80O7m7dKeq7ljiFSr/BamHdf/+m6o6t4TGv83k+31/f4Kq+o/0JnmN6zfpPxKRC7tEnlBV/10RvBIl0Gg0vrR4btlP+spb8ncX1tpbROTVj0875843xrzYW+ecO8IYc1vfPk+p6rGJ2n6lrLEEpCiKC4wx/R+z3TM/P/9ZHtqQ3qhcccUVpxhjbjDGvL9b3X2q+smlKkWPcjLGXFqW5Y3puX6torEExN/eWjsrIpf3/e/yqDHmDyLydMrAMqttk3PuLGPMG/p8n6KqDy7HYYm3vC8nvWdxnzNT5zm2gHRD4n/8Hp46JNb3KoGhvrq52Wx+rtPpfN4Yc7aIHNHHz7/13Z975j/TfsDzkxQ5jzUg3ZDcICKXpgiHNf2fgDFmX1VVM61W6zu5MRl7QDzwoihOFxF/ePUHeXh1OiNojPGfHX9SRB5T1UfSqSxeJUkEJJ5d3okEMAIMCMaL6swIMCCZNZx2MQIMCMaL6swIMCCZNZx2MQIMCMaL6swIMCCZNZx2MQIMCMaL6swIMCCZNZx2MQIMCMaL6swIMCCZNZx2MQIMCMaL6swIMCCZNZx2MQIMCMaL6swIMCCZNZx2MQIMCMaL6swIMCCZNZx2MQIMCMaL6swIMCCZNZx2MQIMCMaL6swIMCCZNZx2MQIMCMaL6swIMCCZNZx2MQIMCMaL6swIMCCZNZx2MQIMCMaL6swIMCCZNZx2MQIMCMaL6swIMCCZNZx2MQIMCMaL6swIMCCZNZx2MQIMCMaL6swIMCCZNZx2MQIMCMaL6swIMCCZNZx2MQIMCMaL6swIMCCZNZx2MQIMCMaL6swIMCCZNZx2MQIMCMaL6swIMCCZNZx2MQL/A1je6EFoacTWAAAAAElFTkSuQmCC;" parent="1" vertex="1">
          <mxGeometry x="-227.57" y="112.00999999999999" width="60" height="60" as="geometry" />
        </mxCell>
        <mxCell id="HXg6kgFIzx5bsLZ2JNcb-43" value="" style="shape=image;verticalLabelPosition=bottom;labelBackgroundColor=default;verticalAlign=top;aspect=fixed;imageAspect=0;image=data:image/png,iVBORw0KGgoAAAANSUhEUgAAAMgAAADICAYAAACtWK6eAAAAAXNSR0IArs4c6QAAF35JREFUeF7tXQ2UXVV13vverABptUPlR6D1HwUERI0FAVORVDQaETCBKmKFABaYd8+dCUlAq48iojQzZ983IeiIGqO2YJQfBfzlRxERBSqsSnFVWyoGEGmdokIyzLu778ALK4TMzLv73nffPe+cs1ZWslbOt88+3z7fu3/n7I3gm2fAMzAtA+i58Qx4BqZnwAvErw7PwAwMeIH45eEZ8ALxa8AzIGPAX0FkvHmUIwx4gTgSaD9NGQNeIDLePMoRBrxAHAm0n6aMAS8QGW8e5QgDXiCOBNpPU8aAF4iMN49yhAEvEEcC7acpY8ALRMabRznCgBeII4H205Qx4AUi482jHGHAC8SRQPtpyhjwApHx5lGOMOAF4kig/TRlDHiByHjzKEcY8AJxJNB+mjIGvEBkvHmUIwx4gTgSaD9NGQNeIDLePMoRBrxAHAm0n6aMAS8QGW8e5QgDXiCOBNpPU8aAF4iMt9yoer0+99FHH92dmbf8eT4A7I6IjwHAb5n5EUT8bRAET/5ba/147kG9gcwMeIFkpiw7IIqiAwHgKERcZETAzM9HxJ0zWvqDEYwRCwDcCQBfnzNnzk2rV6/+Y0Y7vnsGBrxAMpDVaVel1B7MvAAR/xoAjChe2Ck2Y7+mEQoz3xiG4fdGR0fvyoj33WdhwAukoCWyatWqnTdt2hQBwBsA4E0Fmc1kBhGvS9P0s0mSfDUT0HeelgEvkAIWh1LqTACoAcDLCzCX20TrynVjWyhfzG3McQNeIDkWQBzHS5nZCOOwHGa6BmXmHwGAuaJ8umuD9LlhLxBBgIeGho5I09TcTh0tgPcCchUAnEdEP+3F4DaP6QWSIXqDg4O7hmH4MQBYlgFWla4TbZFQVRyywQ8vkA6jpJR6IwCMAMBrOoRUtZu/mmSIjBdIB2TFcXwGM48CwA4ddLehi7maxES0zgZne+mjF8gs7EdRdDEintHLIHVx7A8R0QVdtG+9aS+QGUKolLoRAMytVT+3S4ioX38AcsfNC2QaCpVSDwPArrkZtsPAFUR0nB2uluulF8h2+I6i6D8R8cXlhqLno32HiN7ccy8q5oAXyDYBUUqZj2rdfo37GwC4nZkfDoLgYfM3APym/fdOiLgLAJg/z2v/bf5tBHtAl9fPGBGZD5++tRnwAtlqKSil/q61sfBzXVodvwSAK9M0vbrRaPxAMkYcxy9j5rcCwJY/EjMzYtI0PbbRaFxZuGFLDXqBtAMXRdHfIOK3uxDHcWa+IkmSbxVpO47jv2JmswfspCLtGluIeLDW+sdF27XRnhcIACil9gWAnwDAnxQYxPE0TccbjcYdBdp8lqlarXZkGIZnMvMxBY7zC0R8o9Z6Y4E2rTTlvEAGBwefG4bh1wFgQUERLEUY2/oax/EJaZquQMRXFzEPRLxGa724CFs223BeIHEcm1ugUwsIojnttyxJkq8VYEtk4rTTTps3b968FQBwNgDMExl5JuhsIlpdgB1rTTgtkOHh4cObzebNeaOHiPcEQbBkZGTknry2isAPDQ29Ok3TrwDAS3LaexgRD9Na/yKnHWvhTgtEKXUZAByfM3rfJyJztLZSrVar7R8EwQ0FfOz8FBF9oFKTK9EZZwVSq9UWBUFwbU6uzRmLek4bXYMvX758t6mpqV/l3WSZpulbG43GN7vmaIUNOyuQOI6vZWaTUEHa1hHR+6XgMnFKKc4zHiJer7VemMeGrVgnBRJF0fGIaG6vpO0mIjpCCi4bNzw8vF+z2fxZnnGZ+X1JkqzPY8NGrKsCuRkRDxcG7D6Dte0bQRRFSxDxy8I5m4+HV2qtj5XibcU5J5Aoik5FxHFpwFqJEN5S9FdxqS9ZcUop87z0kay4Lf3DMNx3ZGTkXineRpxzAlFKXdfey5Q5XojY0FqbZA1WtuHh4V2azeZtOV7/nktEF1o5eaHTTglEKfUiAPgvIVePNJvNQ8bGxsymQ2ubUmqofbZeMocfE9HBEqCtGNcEMggADWGwPkxE5wuxlYENDg7uEIahuYq8SuJUmqYLG43G9RKsjRjXBCK6vWLme3fcccdDPvGJT/yfjUHe1mel1N8DwFrJXJhZJ0lirkJONGcEopQaAIDfCaN6BhFdIsRWDrZixYrnPPHEE3cxs+TUpFO3WS4JRHoY6gmTnZ2IHqzcSs/hUBRF5yPih4Qm9uw3PqbjwSWBmFNy7xQsiBuI6EgBrtKQKIpegYimXELmXF+tW84TkiS5vNITLMg5lwQi3W5RJ6LzCuK7UmbiOP4KM0uymVxMRGdVajJdcsYJgbQ37ZlECZlbmqbzu30qMLNTBQGUUucAgMk1nLXdTUSit2BZB+p1fycEEsfxAcx8t4DsB4hoLwHOCkg737BJjpe5PfbYY3PHx8fN81lfNycEMjQ0dGSapt8VRPIqIiryrLfAhe5CWleRza2ryNyso0xOTu6xdu3ah7LibOvvhEDiOH43M39JEBwioliAswYiTa8ahuErq3KCsptkOyEQ1dqlBwBaQKTJgN7X9TSUUqYcQuZCQIi4QGud+7iyICalQpwQSBRFFyLiKgGzxxCRWUB925RSnxfm1up7bkzQnRCIUuozAHCyYJW/ut/LlimlzN40s0ctU0PEZVprw2tfN1cEck0rMdzbBJHcmYhMsZm+bXEcn8/Mki/qK4noor4lpj0xL5AZIjwwMLBTvV7f1M+LQCn1TwCwPOscEXGF1tpg+7o5IZA4ji9l5lMEkez7PUfSxHmIeLLWuluJvgWh6g7EFYFcwMznZqXQhVeZrbzEZk/V0qzcBEGweHR01Ny69nVzQiBRFNUQMRFE8nAiukWAswailDL5ro7K6nAQBK8fHR39UVacbf1dEYg0zc/pRCRO8GDDYoiiyGRyf2lWXxFxbxdSkjohkBx7jsZb5x5Oz7p4bOk/ODj4F2EY3i/xd4cddhjolxOWM83fCYGsWrVq502bNv2vYCHcQUTzBTgrIDlyZU0Q0c5WTDKnk04IxHCklDI5av8yK1/MvE+SJD/PirOhfxRFo4go2WvW95s4t8TPJYFIPxb2bY0MpZQps/Y6gZj7fo+acwKJ41j0qhcAKlneQLConwEZGhpalKapNLv9oUR0a14fbMA7cwXJk7C6H4taKqXMRz6TyCJrmxgYGNi1Xq9PZQXa2N8ZgbTTbv5WEqRW3fI1WuvMG/okY5WBaWeY/Ddh0dJriejtZfhZhTGcEUj7Qd2UYn6zgPg/mOKY/fLeP2fKn0oXDRLEdkaIawJZBgCflpCIiB/VWv+DBFslTK1W29ukHmVmyWvaqampqQPWrFnjTIZ3pwRSq9VeEATBfwsXrNn2foTt50NaGSbNCUlRhnpm/mKSJO8V8mclzCmBtG+zpK97Ddzq9/9KqdcAgHm1GwpX69uJSPrmSzhkb2EuCuQ0APhUDtqt/QaglPoBABwmnPutRHSoEGstzDmBtK8itwPAa6VRY+alSZJskOJ7gZNua9/iKzNHSZJIS0f0YsqFjOmqQPJeRcCmjItRFJ2CiJfmWDH3z5kzZ/7q1asfzmHDSqiTAiniKmJstHL2Vp6/HDuZn17Qrl49DAGVD3C3fnaUUrmvIsa3qampl6xZs0Za1q1b03vSbhzHS5k5bxZ2q0peF02oswJpX0VMKbE3FUDqkUR0QwF2CjORsxbh1n449+Zq68k7LZChoaFDms3m9Yg4r4CVWSOisQLs5DJhttSkafoxZj41lyFze4H4Ga21+bjqbHNaIO2riDQt6fYWzeWmalOvtqTUarVFQRCYcgZFlCb4ebPZXDg2NvZrZ9Xh8jPI1kFXSl0GAMcXtBDuN4nYkiRZX5C9jswopT7S6ljvqHMHnYIgeNfo6OhXO+ja112cv4Jsia5S6j5Ti7CoaDPzJ5MkMdVku96kmUlmcGw1EZ3ddcctGMALpB2k9hbwQt9GIeL1WuuF3VwHSilTmvq5BY5x88aNGxdu2LBhskCb1pryAtkqdK2riLQS7kwL4EQiktQmmXVR5Tj0NJ3tB9I0fUe/lpybldDtdPAC2YaUHLVEpuWfmQ9JkuQ2SYCmwyilxFv3Z/DD7Fa+qUg/bbflBbKdCCqljgWAIh9QNxBR5vSeMy0upZS5HXxRgQvQi8NfQTpfTnEcL2Tm73SOmLlns9ncbWxsTHTkd1vLOfJZTeekF8c0zPgryAzrularHR4EQSFlxhDxTK312iIEp5T6MgAsyWuLmR9K0/TAooSb158q4r1AZolKHMfzmdkcsto9TwCZWSdJMpTHxhZsFEV3mjPyeWy1EuJd1kqI97d5bLiA9QLpIMrLly/ff2pqyvxq79tB9+m6fIGITsqBfxoqzRK5xQAzfzxJknOK8KXfbXiBzBLhs84668Vz5swxr2lfn2cxIOJ1WmtJGbhnDauU+iMA5No/hohDWmtJ5d88NFiH9QKZIWRKqQ8CwEeLiGqRG/+UUg/lveVrz+muNE3PaDQaPyxijv1owwtkO1Ftv+a9EABeXlTQgyB47+jo6BeLsKeUkub32u7wzDyCiCOtUg8PFuFfP9nwAtkqmlEUHQgAKxHx3UUHeWpqat+i8klJSzfPMieza/fjRHRx0XO32Z4XSDt6SimT78lUbc31tmqaxXAFER1X1EJRSr0VAK4ryt42dtaHYTg8MjLySJfsW2XWC+Sp2iGiUsgZIl34hzillLlde08GH7J0vTNN0+WNRuPGLKB+7Ou8QIq+n9/OIrmUiHKf7tvWbhRFByNi14poIuIkMy+vwinJXgrPWYFEUbQ7It7VpVuqJ2NqtrsDwGKt9ePdCHIXtpxsz83xuXPnLr/ooot+3405VN2mkwIpIhVOB4G9GxEXaa03dtBX3KUkkdwahuGykZGRe8SOWgp0TiAliMNcLcYQsdFtcWxZc0opk050BQC8o4vr8GdhGC51TSROCaQEcYwz88VJktzdxYU6renWFpSTAeCMPGlVZ/HbOZE4I5Aui2M8TdPxqpzEayfFM4nxxPmHZxCKUyJxQiBdFEelhLHtou6iUJwRSd8LpEviWJ+maaMqV4zZbufaQjFpgfacrW+G/3dCJH0tkParXLOxr6j2eBAEq0ZHR60rAzA8PLxfs9n8uHntXBQZAHDr3Llzj+rnV8B9LZCCU+KY4jOriOiWAhdY6aaUUia5nLmaFNXGW5scTy/KWNXs9K1AlFKmwM27CiI8GRgYWFWv1zcVZK+nZoaGht6epqm5mryyIEcqkZe4oLk8w0xfCiSKorNbCakvKoiwk4joCwXZqowZpdQeAJAUcbbdbEtpNptv6ce9W30nkDiOT2DmfyliJRZ5hqMIf7pho6gEEK2PlHeGYXhUv+0C7iuBtL8ofy9HFden1yAzn5YkiaimejcWcjdtFiiS9UT0vm76WrbtvhFIHMc7pWl6S95sHyYAzPyeJEn+uexg9HK8AkXSV88jfSOQKIo+jIjn5V1kzLw4SRKT5se5ppRaAwBn5pm4ybUVBMEbelUjJY/v28P2hUDMUVlENK9f/zQPQWmaLmw0GmaLurNNKWUK8ORKCcTMn0uSxOwLs771hUDiOP4CM5+YJxouPJB3yk8RWeNtrCXfl1eQKIqOQ8SvdBr8afqtJKKiXgvndKUa8LwnLRHxXzdv3rxg7dq1f6jGjGReWH0FWbJkSbjXXnuZW6uDZdN/8oF8bZIkue67pWNXGbdixYrnTE5OGm4PyOHnhUR0bg58z6FWCySO41XMbPJXSdu3BgYGFtXr9VRqoJ9xSqmDAOC7rQNgz5POExEXaK0LSQAu9SEPzlqBDA8P79NsNs0v3J8LCfhV+6H8P4R4J2AF1Er5BhEtspUsawXS2ql7CSJ+QEp863XkB5Ik+ZQU7xJOKfVJABBvSETEZVrrz9jImZUCiaLoFeYhEAB2EpJ+NRG9U4h1Dlar1V7QrpPyAuHkbyaiBUJsT2FWCiSO4wuYWfrwZ/I9LSi6ZmBPo1jC4FEUnY6I5koibccR0RVScK9w1glkcHBw1zAMzdVjLyFp5xGRORPhW0YGWg/tVwHA0RlhW7pbedW2TiBKqeXtHLqSON02MDCwoF6v+xrgAvba2Ry/DwBzBXADKTwFq9CPjmFWCcR899hzzz1/2vowuH/HM9yqIyK+U2t9tQTrMU8xkPNE4joier9NXFolkHbeJ9HbkFat8m+2njtMVnTfcjAwODj40jAMfyrZ98bMDAAH9SpvmGTatgnEnPWQvg1ZQkR5t6RIOO47TM5X7KNENGwLKdYIRCllXsteKSEWEW/UWr9JgvWYZzNQq9UODYJAmrzif5rN5kFjY2OmYE/lm00C+TwASKvEnkhEphCnbwUx0DpicEUrO/4xEnNF1oyXjJ8FY4VA6vV6MDExcb8w8dmtRHRoFlJ839kZiOP4GGYWfddg5itbzyHHzj5K73tYIRCllCmfLDrlx8zLkiQRPdj3PjzV9iCO41uYWfLj8+jk5OReNmyFt0Ugpp63yrpcmPmXSZK8LCvO9++MgTiOz2Lmsc56P7MXIh6vtf6yBFsmxhaBmHICmc8l+LMe3V1Kw8PDL0zT9F5m3lEwUldK0wn8mBFSeYEMDg7uF4bhzyQTZ+ajkyT5mgTrMZ0xkCMbyn1E9OLORuldr8oLJMfWko0TExMvW7duXV+kC+3dEpl55Hb57PUS/xDxdVrr2yXYsjCVF0gURTcg4hECQj5LRKcIcB6SgYGVK1f+2ebNm38uKYba+rL+kSRJ/jHDcKV3rbRA6vX6jhMTE6IKsbY8BJYe8S4MqJQyGSiXCUzfRkSHCHClQSotkByvdx8BgL2JaKI0Jh0eKI7jxcwsetabnJx8TpVf91ZaIHEcn8vMFwjW3gYiWirAeYiQAaXUbwBgNwH88CrXXKm0QJRSlwNA5oWOiENaa/PtxLeSGFBKmYyUmfe7MfOZSZKsLcnNzMNUXSD3AsArss4qTdPDGo3GD7PifH85A0opU5ZuUGCh0hWqKiuQHA/ov56cnNy3yve1gkVUeUi7UKgkS0ylH9QrK5D28c4fCVaGf/4QkJYX0q5Y9UBWO8y8KUkSaXaarMNl7l9ZgUh/kRDxHK21qb/nW8kMKKXMR9kdsg7LzPskSWK+pVSuVVYgcRxfzMxnCBhbRETfEOA8JCcDSinzVfy1Wc1U+ZtVZQWilDJllw/LSPZGALg0I8Z3L44Bc+Y8c0olZv5YkiQfLM6N4ixVWSC/lyQGKI4ab6ksBhDxGq314rLGyzJOlQVifo18c4OBm4hIst+u6+x4gXSdYj9ABwx4gXRA0jO6RFH0OCJKDuJkHcr37z0DVxGRKAFEt12v7BUkiqJ/R8R9uk2At18JBs4motWV8GQbJyorEKWUSdJgkjX41ucMIOJRWutvV3GalRVI6wpyfOsKclkVSfM+FcrAL1o5y/Yu1GKBxiorEDPH1nmQn7TS/cwvcL7eVPUYGCOiWvXcesqjSgskiqIliFj51DBVDW7V/WqVwXtocnJyv0suueR3VfW10gIxpLXeZq1svc3ye6uquoJy+JWm6fxGo3FHDhNdh1ZeIG2R+CtJ15dCqQPcF4bh20ZGRu4pdVTBYFYIxMwrjuOjmfkcADhYME8PqQ4DG8IwrNsgjso/g2wb03q9PndiYsIU7zSlEF5VnZh7T2ZjABHNkdwvaa0/N1vfKv2/NVeQbUmL4/iANE1fHgTBHsy8S5VI9b48zcADQRA8kKbpHUT0oI28WCsQG8n2PtvHgBeIfTHzHpfIgBdIiWT7oexjwAvEvph5j0tkwAukRLL9UPYx4AViX8y8xyUy4AVSItl+KPsY8AKxL2be4xIZ8AIpkWw/lH0MeIHYFzPvcYkMeIGUSLYfyj4GvEDsi5n3uEQGvEBKJNsPZR8DXiD2xcx7XCIDXiAlku2Hso8BLxD7YuY9LpEBL5ASyfZD2ceAF4h9MfMel8iAF0iJZPuh7GPAC8S+mHmPS2TAC6REsv1Q9jHgBWJfzLzHJTLgBVIi2X4o+xjwArEvZt7jEhnwAimRbD+UfQx4gdgXM+9xiQx4gZRIth/KPgb+H8kpYTIsS5aNAAAAAElFTkSuQmCC;" parent="1" vertex="1">
          <mxGeometry x="-327.57" y="113.01999999999998" width="57.98" height="57.98" as="geometry" />
        </mxCell>
        <mxCell id="HXg6kgFIzx5bsLZ2JNcb-44" value="非法人员" style="text;html=1;align=center;verticalAlign=middle;whiteSpace=wrap;rounded=0;" parent="1" vertex="1">
          <mxGeometry x="-327.57" y="161" width="60" height="30" as="geometry" />
        </mxCell>
        <mxCell id="HXg6kgFIzx5bsLZ2JNcb-45" value="非法终端" style="text;html=1;align=center;verticalAlign=middle;whiteSpace=wrap;rounded=0;" parent="1" vertex="1">
          <mxGeometry x="-227.57" y="161" width="60" height="30" as="geometry" />
        </mxCell>
        <mxCell id="HXg6kgFIzx5bsLZ2JNcb-49" value="" style="shape=flexArrow;endArrow=classic;html=1;rounded=0;exitX=0.5;exitY=1;exitDx=0;exitDy=0;" parent="1" edge="1" source="HXg6kgFIzx5bsLZ2JNcb-29">
          <mxGeometry width="50" height="50" relative="1" as="geometry">
            <mxPoint x="-4" y="184" as="sourcePoint" />
            <mxPoint x="-3" y="254" as="targetPoint" />
          </mxGeometry>
        </mxCell>
        <mxCell id="HXg6kgFIzx5bsLZ2JNcb-50" value="" style="shape=flexArrow;endArrow=classic;html=1;rounded=0;" parent="1" edge="1">
          <mxGeometry width="50" height="50" relative="1" as="geometry">
            <mxPoint x="22" y="326" as="sourcePoint" />
            <mxPoint x="112" y="326" as="targetPoint" />
          </mxGeometry>
        </mxCell>
        <mxCell id="HXg6kgFIzx5bsLZ2JNcb-51" value="" style="shape=flexArrow;endArrow=classic;html=1;rounded=0;exitX=0.5;exitY=1;exitDx=0;exitDy=0;" parent="1" edge="1" source="HXg6kgFIzx5bsLZ2JNcb-38">
          <mxGeometry width="50" height="50" relative="1" as="geometry">
            <mxPoint x="141.4" y="179" as="sourcePoint" />
            <mxPoint x="141.4" y="259" as="targetPoint" />
          </mxGeometry>
        </mxCell>
        <mxCell id="HXg6kgFIzx5bsLZ2JNcb-55" value="" style="shape=flexArrow;endArrow=classic;startArrow=classic;html=1;rounded=0;" parent="1" edge="1">
          <mxGeometry width="100" height="100" relative="1" as="geometry">
            <mxPoint x="345.75000000000006" y="318.5" as="sourcePoint" />
            <mxPoint x="450" y="250" as="targetPoint" />
          </mxGeometry>
        </mxCell>
        <mxCell id="HXg6kgFIzx5bsLZ2JNcb-56" value="" style="shape=flexArrow;endArrow=classic;startArrow=classic;html=1;rounded=0;" parent="1" edge="1">
          <mxGeometry width="100" height="100" relative="1" as="geometry">
            <mxPoint x="176" y="326" as="sourcePoint" />
            <mxPoint x="270" y="326" as="targetPoint" />
          </mxGeometry>
        </mxCell>
        <mxCell id="HXg6kgFIzx5bsLZ2JNcb-57" value="" style="shape=flexArrow;endArrow=classic;html=1;rounded=0;" parent="1" edge="1" source="HXg6kgFIzx5bsLZ2JNcb-41">
          <mxGeometry width="50" height="50" relative="1" as="geometry">
            <mxPoint x="-148" y="200" as="sourcePoint" />
            <mxPoint x="-40" y="279.5" as="targetPoint" />
          </mxGeometry>
        </mxCell>
        <mxCell id="HXg6kgFIzx5bsLZ2JNcb-58" value="违规接入，无法连接" style="text;html=1;align=center;verticalAlign=middle;resizable=0;points=[];autosize=1;strokeColor=none;fillColor=none;rotation=30;labelBorderColor=none;fontColor=#FF0000;" parent="1" vertex="1">
          <mxGeometry x="-157.77999999999997" y="210" width="130" height="30" as="geometry" />
        </mxCell>
        <mxCell id="woGdxvNeCgIBvUhekuP0-2" value="" style="shape=image;verticalLabelPosition=bottom;labelBackgroundColor=default;verticalAlign=top;aspect=fixed;imageAspect=0;image=data:image/png,iVBORw0KGgoAAAANSUhEUgAAAMgAAADICAYAAACtWK6eAAAAAXNSR0IArs4c6QAAIABJREFUeF7tfQ2YHVWZ5vede293umWTKLCg/OmICwoDKBAiuPyMCwnyIOLKjw47zqiPmd08D5jm1qnbnUHKke6+deqms5MZwwQFXEcNbfx5IDOawCighk2CKAxBmV1QkBgz/CyBSHfS3VXf1ne3bvam052+Vbeqbt3uc57nPLdu3/PznffU2+fvO9+HoEPTCAwMDBwphDgWEY8FgFp8MwB0IWIXfwaxu+65/u8H0hERyzNKRKP8iYgjte/1z1P89hIA7K5FItptmubephs3xwvAOd7+wzbfsqyOrq6uMwDgxLoXfzIRmBCFjOL4Rj1pJj8T0bOmaf4qo7JnQixNkKAbBgcH3y6EOAMRmRD8+cdEdGomeilZISYQ8UkiehIAnhRCPOm67pOmae5Kttr2KH3OEcRxnDcxAeojEfH3+e3RZalJ+QoThiMTyPO8KnkMw+BRac6EWU8QHhlyudx5APAfg8hk0CE6Av8CAD/h6Lrutt7e3ueiF5X9nLOOIJVK5WzXdc9FxBop3pn9bmhrCZ9lshDRtlwu92ixWHysrVszSfi2JggRoeM4lxIRE+IcAFgcLKZnUx+1W1t4J20rEf0MER81DOMBRKxuzbVjaDuCBDtLS4UQSzzPW4qIf9SOwM8VmYno10KITZ7nbR4dHd1kWdZYO7W9LQjCC2siWkpESxBxKQCc0E4ga1kPIPACEW1CxM2IuKkdFvyZJcjg4OCb8/n8EiaFP2QzKfi8QYfZgwBPxapkmZiY2Nzb2/tqFpuWOYIopZgM1wHAlQBwZBZB0zLFjgBvKW8EgGEp5abYS2+iwEwQpL+//5h8Ps+kuA4Rz2+iPTprmyNARI8wUSYmJoZXrlz5b61uTksJopTis4kqMQDgqFaDkUD9HgC8DACsJ8WRF6j7EXE/EXEc42f+W90zEFEnInYAQGftGRGrz/w3AODfjg4i4yYSkL3VRTJuw8GowucuLQmpE+RLX/rSESMjI9cREZPi0pa0uslKieglRHwBAHYS0U5E/B0TARH57y+NjY1VSdHX18dTh8QDK0syWTo6Oo4ioqM58j8cIjoOEY8HgOOJ6ARE5L+3Y+Ct4uHu7u7h5cuX/yHNBqRGkHXr1nW/9tprnwOAzwLASWk2MkJd/F99ByLuIKKnEXHnxMTEzlwu98K8efN23njjjfx724U1a9Z07tu373jXdU/I5/NMmuMR8VQiOh0AOPLolOXwvL9Z8/cjIyNDaW0Xp0IQpdSniOhzrACYQfR3AMBTTAgi2lEoFHb09PQ8k0E5ExdpaGjo5PHx8dMRsUaY0wLiJF53yAoeQ8QhwzC+GTJf6OSJEqRcLl8hhLgpQ1Opf0XE7QCw3fO87aZp8rMOMyBg2/YiIcQiAFhERPx5SkZA+57neUOlUumnScmTCEFYH8rzPJ5O3ZCU4A2UywvihwCAVR5+5rruY6VS6bcN5NNJZkCgXC6fmMvlziYiVu/heHGwcdAq7P4mIErs/RsrQWzb5jktjxhMjnwL0NoJAD/ytXZ/SEQ/Mk2Tv+uQMAJBv/+Jr7T4QQDgT94YSDv8Lph2DcVZcWwEcRznaiJyACBt7dmf10gxMjLyo7QWb3F2wmwqi3Xluru768nyvpTb98/+FnqvaZo/i6PeWAhi27bla2zeGodADZbB++L3CyE2F4vFRxvMo5O1AIFKpXKu53msLnRZcB8nDSn2IGLJMIx1zVbWFEGUUjxa8KhxdbOCNJD/ASYFa4WWSiW+6aZDmyFQLpf/mLWwA7KkcQb2lYmJiVIz51GRCZLGlAoRn/B3TNb7V2K/K6X83232PmhxD4OAUupd/jnTx4iIN3LekyBYj3ueVyqVSpuj1BGJIClMqe5lYkgpWdVAh1mMgGVZ+e7ubiYJR17kJxKI6K9M0+wPW3hogiilvuUfrF0TtqIG0r/IpEDE9YZhbGsgvU4yyxAol8tLhBA1siTRug1SymvDFByKIAmR41VEXOt53lptaiZM183etME5GqskcYw7hCJJwwRJgBysz7Q2n8+vnauqHXH3/GwrL0GiNEyShgiSADnW8ahhGAabkNFBI3BYBBIiSkMkmZEgMZNji6+SMCCl/L5+JzQCYRFQSn3Iv1PTBwAXhM07TfoZSXJYgsRIjn3+BaCB7du3D2zYsMGNqXG6mDmIwDXXXJNbtGhRn3/BjIkyLwYIDkuSaQniOM5KIrotBgHuJaIBrTkbA5K6iAMIsIYxIjJJrmoWFkT8K8MwptwCnpIggeGEHzRbsW/Y7QumaVrNlqPzawSmQyDGM7nLpzIYcQhBBgYGji4UCg8Q0ZlNdMuziOibPTK+10QZOqtGoCEE4tDqYK2N8fHxS/v6+th2wIFwCEGUUncCwKcakmzqREwKQ0rJNlt10AikgkBMeoF3SSk/PS1BbNv+b/7F/i9FbRER/cBfa/BOgw4agZYg4K9Nvo+Il0et3DfIsdw0zbW1/AdGkNWrVy8cHx9n5UD2phQl/ERKeWGUjDqPRiBOBJRSP46qWk9EzxUKhff09PSwCzw4QBCl1HLfVMzfRRR0q5Ty/RHz6mwagdgRUEr9z8Daf+iyfYPbf2aa5j9MJghbtIvykj8kpbwktBQ6g0YgYQQcx3k84mbTvVLKjxwgiG3bH0HEKDtOmhwJd7IuPjoCSik2eM6X60Jb7fT5cCarQlWnWLZtb+DLKyFF2ZXP5y/SioYhUdPJU0Ug6j9/IvqiaZqfR9u2z2FPQGGl1oeAYRHT6VuFQMSji19KKU9jF2afIKJvhBR+V6FQOGfFihW/D5lPJ9cIpI6AbdunICIblws11WI34KiUKvk2WQdDSr1aStkTMo9OrhFoGQJKKbaXtSKMAER0FROED0X+a5iMvrOTs6WUbI9KB41AWyCglGL7XGE98Jq8BvlHfw1yRYhW6p2rEGDppNlBQCn1YGAmtVGh7uIRhG/1hbG6ztZGPtFoDTqdRiArCCil2Br8x0PIs4UJsgcAFoTItEpKWQyRXifVCGQCAaVUBQBuDiHMy0yQsE7e9QI9BMI6aXYQiLJQj0KQGe/xZgcSLYlG4P8jEOUKeRSC/EpKmaSpSN2nGoFEEFBK/dJ3CvruMIVHIQi4rntJb28vO6fRQSPQFggMDg5enMvleBcrVIhEEES80zCMz4SqSSfWCLQQAcdxvkJEB90WbEScSAThgoUQ5xSLxbAHL43IpNNoBGJFwLbtSxHx/iiFRiYIANwhpVwWpVKdRyOQJgJKKSZHJH8kzRCE23itr/G4Ic3G6ro0AmEQaNa+W7MEAX/oOt8wDL7eqINGIFMIRNRUP6gNTROES5NSzmjjN1PIaWHmBAIRDsEPwSUWggDAKBEdY5rm3jmBvG5kphGwbfvfIeK/+Zdlu5oVNC6CsBw78/n84p6ent81K5TOrxGIisDQ0NBxExMTW+Py1R4nQYCInsjlctcXi8WnozZQ59MIREWgUqmc6rruPWxwIWoZk/PFSpCgcG2XN67e0eU0jEAc9nmnqiwJglTr0UYdGu5bnbBJBBzHuZWIEvEikBhBgjZrQ9ZNdr7OPj0CMRmsPizESROEK38+cLt2h+5sjUBcCCil2AMuO9A5Ka4yU51iHbLYQfwuu2HT+ltJdufsL5sderL7NSL6aBqtTWMEOdAOIhpBxH4p5UAajdN1zC4ElFJMjJWI2J1Wy1IlSF2j2JLjWinlV9NqqK6nfREIplM8pTo77Va0iiC1dj4MALdLKYfTbriuL/sItJIYNXRaTZCaHJsQca1hGBuz321awiQRsCyro7u7+88BoCUjxiFr5wgKXfcBwIcTAmkLAKzP5/Pre3p6/k9CdehiM4hApVI5iYhuAIAb2CZuQiLeG9ZtdOgRhA8AEXFfBHu+Ydq8i4niuu763t5efWsxDHJtlnbVqlWLXdetEiOkfbYwLR3jnS8AYCXGW8NkjEQQ9n1eqVQuJKIKEZ0bpsIIab/jW378zsjIyEbLsv4QIb/OkjEELMs6oru7+0r2SZPCdu0PEXGlYRjbovhUj0wQxnxoaKhrfHy8jIg3ptAHrCW8UQhxX7FY/EEK9ekqYkagUqlc7nkeT8+vBIDjYi7+kOIQ0TIM4wu1H1InSK1ix3F43lhOo9FBnU8xWTzP21gqldi3og4ZRaBcLp8vhGBCcDwtJTG3EdEtpmk+UF9fywjCQgROStjPyNUpgVCrZgcAPEJETJQHTNPk9YsOLULAtu23sYEEvooNABxPT1mU1Yh4i2EYb0yut6UEqQmjlGLr2Z8DgEUpA1Or7jEiehgRN0spI5l6aZHcbVutUuoyIlqCiBe14jCPgUNEPiIYMgxjWoOGmSAIC+vvdLFrNybJTUkrkzXwVm1FxK2u6/Kwu7W3t/e5BvLoJNMgMDg4+HZEXJzL5c4josVRfZHHBTAiPkFEQ1LKr81UZmYIUhO0v7//rR0dHTcREZOlc6YGpPT7bgDgK5nbXNfdWigUdhSLxZdTqrutqqlUKkeNj4+fnsvlmAjnBWRg18pZCK/yiLFgwYKhZcuWjTQiUOYIUjftOotJgoifbKQhLUjDpOGFP69nduRyuR0TExNPzRUjFGzkIJ/Pn+a6Lq8XapEX1Fkhw0GvBCJ+GRGHwl7tzixB6oiylO2jRvDJ3gLOVKt8HhHZIviznufxVeJniOjZhQsXPrNs2bLxVgkVpd5169YV9uzZczIivpOIThZCvBMA+Jkt9Sd6pyKKvFPlIaJvMzmiri0zT5Baox3HOYOIrgMAjtxR7Rh+y4QJiMPPrxPR674Ho738KYR43fO86vfR0dHXLcvi59iCZVnzu7q65vPpsBBivud58/3/qtXv/OnPyzmeyERgQgDAibFVnm5Bz/ouC4YRcdgwDHYXGDm0DUFqLbQsa15XV1eVKIh4eeSWt0/G/f4tuDEA4M9aHEPE/UTEkX/jHZkOROwkIl63dQTrN36u/94+rY4gKRHxYfDw6OjosGVZrNrUdGg7gtS32HGc99eNKpmc+zbdQ7qAmRDgtWBttIjdnG1bE6SG3MDAwJG5XI5HlCsQcQkR5WZCVf/evgj4h3ouEW32dfr+yXXd4b6+vleSas2sIMikUeUd/tnFUgBYEsR5SYGny00VAZ4ybebon6lsMgzjN2nUPusIUg+abdvHCyGWeJ63lEcWXoymAaquIzYEePNisxBik+d5m03T3BlbyQ0WNKsJUo9Bf3//MYVCgUlSG13e0iBGOlm6CPClNx4pNo2Pj29euXIlG5RuWZgzBKlHuFwuLxBCXMDKcUR0ga+wyLHQsl6Y2xXz2dAWRNzCyqOe520plUqvZQWSOUmQyeCvXr164djY2MWIeGFAllYpTWblvUhaju1MCiL6cUdHx0MrVqzYk3SFUcvXBJkCuRphhBAXEdHFAHBWVIB1vioCjyPiQ57nPZx1QkzuL02QBt7gdevWde/du/fdRFSNiHgqf4Z1MN9AVe2chKdK7MLiaSJ6WghR/RwZGXnasqyGFAOz2HhNkCZ7xbbtKlGYNAFhaiRKzZJfk00Im/1lRKy+/PVEkFKyesesC5ogCXXp0NDQWzzPO5aI+IT/oFj3t7cCwFEJiRCmWA8AdiPi7/mzPiJi9bsQYndnZ+fu5cuXzykjGG1HEN6BQsRTPM97cTZcZLIsK9/V1VUlkBBiIfvIIyIefdhXXhciVj89zzvoe/B7LR2Tgacxo3XxwHdErD4TUfX32ncA4Dstuw3DeDEMm+ZS2rYhiFLKDu6uv6uug/gCzC8R8e8Mw7hnLnWcbms6CGSeIIGDxX+caSeJiO70T1o/kw5supa5gkCmCcKqIoj4QqOdgYj/3TCMFY2m1+k0AjMhkHWC/BwR3ztTI+p/9zzvQ6VSSRuJCwOaTjstApklSBTBuJW+MeNnRkdHz2znvXf9vmYHgSjvYVOmRxttulLq6wDwp42mr0+Xy+Xed/PNN/8iSl6dRyNQj0AqBPEtcK+WUvaEgV4p9QQAnBEmTy0tIn5c72pFQU7nmYyAUmoIAEKta0OPIL591Q1SymvDwB/BB8mB4rW/9TBI67SHQ0Ap9S3fvNM1YVCKQpBfSSnZVEzDQY8gDUOlEyaIgFKKTTixOlHDIQpBwHXdS3p7e6e1gTrF0KbXIA13iU6YBAKDg4MX53K5B8OWHYkgiHinYRgNH+RFWRxxQ/QuVtju1OmnQ8BxnK+w0cKwCEUiCFcihDinWCw27B7Ntm19DhK2d3T6WBCwbZvdMUSy9B+ZIABwh5RyWaMt0CfpjSKl08WNgFKKyXFplHKbIQjXd62UckOjFWtdrEaR0uniQsBxnJVEdFvU8polCJvJPN8wjFBW8LQ2b9Tu0vnCIOA4zieI6Bth8kxO2zRBuEApJUYRYrbdB4mCgc6THALNnL/VpIqFIMEFnmPmij+N5LpUlxwHAuzvBBHZBhdfTGsqxEUQFmJnPp9f3NPTw+6addAItASBYJ3LHsSOj0OAOAnC5xZP5HK568N6/omjIboMjUClUjnVdd17EPHMuNCIlSCBUOyJyffCa3wvLiF1ORqBmRBwHOdqInLidsiUBEGqbdFKhjN1qf49LgQcx7mViKy4yqsvJzGCBJXwKGLMVjtLSXSILrNxBJRS7L6PR42rG88VLmXSBGFpnvfdiA1IKe8IJ5pOrRGYHgGl1Gd9d3Z9STsgTYMg1VYi4nd933sDYfS39AuiEZiMQKVSOdv35dhHRB9NA53UCBKsS0YQsV9KOZBG43QdswsBpRQTYyUipmYKNlWC1HXXowCwVkr51dnVhbo1SSAQTKd4SnV2EuUfrsxWEaQm08MAcLuUcjjthuv6so9AK4lRQ6fVBKnJsQkR1xqGsTH73aYlTBIBy7I6uru7/xwAWjJiTG5bFILcBwAfTgikLQCwPp/Pr+/p6WH/djrMEQQqlcpJ/g3SGwDgBiJi9xNJhHsB4KowBYcmCB8AIiK78R0MU1HItLuYKK7rru/t7W341mLIOnTyDCCwatWqxa7rVonhm5RakJBIY7zzxZ6REfHWMHVEIohpmlalUrmQiCq+A/hzw1QYIe13AOA7IyMjGy3LmlP+LCJg1RZZLMs6oru7+0pE/FgK27U/RMSVhmFsi2IbITJBuCeGhoa6xsfHy4h4Ywo9w1rCG4UQ9xWLRW2vNwXA466iUqlc7nkeT8+vBIDj4i7/kPUDomUYxhdqf0+dILWKHcfheWM5jUYHdT7FZPE8b2OpVHokaaB1+dERKJfL5wshmBAcT4teUqic24joFtM0H6jP1TKCsBC2bZ+CiLwuSUwvZhqIdgDAI+yX23f7/IBpmrx+0aFFCNi2/TY2kMBXsQGA4+kpi7IaEW/x1cnfmFxvSwlSE0Yp9XEA+BwAtMo/+WNE9DAibpZSRjL1knKHtn11SqnLiGgJIl7UisM8BhAR+YhgyDCMaQ0aZoIgLKy/04WO4zBJbkpamayBt2srIm51XZeH3a2zwRdiA21OLMng4ODbEXFxLpc7j4gWAwDHlgVEfIKIhqSUX5tJiMwQpCZof3//Wzs6Om4iIiZL50wNSOl39vTKVzK3ua67tVAo7CgWi+wAU4dJCFQqlaPGx8dPz+VyTILzAjKwk9IsBPZpObRgwYKhZcuWNeS7PXMEqZt2ncUkQcRPZgHZKWRg0vDCn9czO3K53I6JiYmn5ooRCjZykM/nT3Ndl9cLtcgL6qyQ4aAuQ8QvI+JQ2KvdmSVIHVGWsn1U3v/OKFEmi/U8IrJF8Gc9z+OrxM8Q0bMLFy58ZtmyZeNt0oaqmOvWrSvs2bPnZER8JxGdLITgy0b8zJb6T2qHthDRt5kcUdeWmSdIrRMcxzmDiK4DAI7cUe0YfsuECYjDz68T0esAsJc/hRCve55X/T46Ovq6ZVn8HFuwLGt+V1fXfD4dFkLM9zxvvv9ftfqdP/15OccTmQhMCAA4MbbK0y3oWd9lwTAiDhuG8S/NVN02BKk10rKseV1dXVWiIOLlzTS+TfLu92/BjQEAf9biGCLuJyKO/BvvyHT4W+adRMTrto5g/cbP9d/bpMnRxCQiPgweHh0dHbYsi1Wbmg5tR5D6FjuO8/66USWTc9+me0gXMBMCvBasjRahzNnOVDD/3tYEqTVwYGDgyFwuxyPKFYi4hIhyjTRep2lPBPxDPZeINvs6ff/kuu5wX1/fK0m1ZFYQZNKo8g7/7GIpACwJ4rykwNPlpooAT5k2c/TPVDYZhvGbNGqfdQSpB439iwghlniet5RHFl6MpgGqriM2BHjzYrMQYpPneZtN09wZW8kNFjSrCVKPQX9//zGFQoFJUhtd3tIgRjpZugjwpTceKTaNj49vXrlyJRuUblmYMwSpR5hdKAghLmDlOCK6wFdY5FhoWS/M7Yr5bGgLIm5h5VHP87aUSqXXsgLJnCTIZPBXr169cGxs7GJEvDAgS6uUJrPyXiQtx3YmBRH9uKOj46EVK1bsSbrCqOVrgkyBXI0wQoiLiOhiADgrKsA6XxWBxxHxIc/zHs46ISb3lyZIA2/wunXruvfu3ftuIqpGRDyVP8M6mG+gqnZOwlOlpzkS0dNCiOrnyMjI05ZlNaQYmMXGa4I02Su2bVeJwqQJCFMjUWqW/JpsQtjsLyNi9eWvJ8JsNTauCRL29Wgw/dDQ0Fs8zzuWiPiE/6BY97e3AsBRDRaZZDIPAHYj4u/5sz4iYvW7EGJ3Z2fn7uXLl88pIxhtSZBVq1a9FxGfnw12sCzLynd1dVUJJIRYyD7yiIhHH/aV14WI1U/P8w76HvxeS8fk4WnMaF088B0Rq89EVP299h0A+E7LbsMwXkySfe1cdtsQRCn1Z4h4FRHxTlP1vy4i8rbgViL6aqlUerKdO0LLnk0EMk8Q1rPK5/O3+5eTrpkBwrKUsjebMGup2hWBTBMkcM0b5k6EJkm7vokZlTvTBFFKPQgAfA7RcBBCnKMd7jQMl044AwKZJYhS6jO+UbkvR+jBf5ZSXhohn86iETgEgSwThMnBJAkd2NK3aZr/GjqjzqARmIRAVIKwbn4Ykzyh1waO47CuDlvZCx2I6CrTNNnlgg4agaYQUEqx5c9SiEL2s/FqvhT/RyEyfd0/af0vIdKD4zh8F+CIMHnq0ppSShUxr86mETiAgO82+h8CNwuNovJrtG37J4j4gUZz+Avth6SUl4RID0qpZ5qwXvJpKeVdYerTaTUCUyEQdqOIiH7KI8g9gfmdhlFlW0qmaf6q0QxKqe82YdT6A/5CnT1P6aARiIwA69kFNs7ClDHMI8gq36ZTT5hcvimaASnlykbzKKVsX31CNpq+Pp0Q4mhtGjQKcjpPPQJKqX7f5BJ7mWo4sM1frFQqH/U8j704hQm7CoXCOStWrGCFuBkD3yf3VUt+EUGZ70Yp5d/OWIFOoBE4DAKBa46fhn3/hBD/GQOvonwtMpTFEPZVyK7YGu0ZpRSrl3yr0fRR1johytZJ5xACSqk7AeBTIZu8b2RkZAFypogF7BJCXFosFtl2bUMhBEkek1Ke01ChOpFG4PCjx8cQcUMEkO6SUn66RhA2/8mL9bDhKSllKA9C7NdwYmKC54NcJ3sjqg9sTe+rUso7wgqi02sEJiOglHqX7/qNvSRHMRF1vZRyuEqQwcHBN+dyOTYMfHwEmEOTpFaHbduLEJEtkvwvAHhU32WIgL7OMi0CSqnnIlqu3+m67hm9vb2vVgkSTLOKAOBEwZvdnRmGwTaqdNAIZAIBx3E2sVu4iMIYUsoK5z1AkGCxzlOc90Us9JtSyj+NmFdn0wjEhoA/tfoGAHwiYoE/HxkZeb9lWf/P0n59IXzTDwD+R8SC2Tfh3aZpht0tiFqdzqcROAQB27bv8q9w/0UT0Hyy3t/hQQQJplrsl6GZ6dL3AICHKNbx0kEjkAoCvp4VO2LiJUIzbsg3SSkP8lNzCEHK5fIHfFOe7IA91LnIJBTYXZnvqtpgsuigEUgUAcdxriYiJkcz3speY08Cpmmyg9cD4RCC8C/swpmIVjfbqrCHic3Wp/PPPQSi3PGYCiUi+pRpmndP/m1KggRTra8DQByL7nuJaMA0TbbhqoNGIBYEgiMC1q26qtkCEdExDGNKXcFpCXLbbbed0NHRwVOtU5oVwL+kss/3uzewffv2gQ0bNrgxlKeLmKMIXHPNNblFixb1+f4cmRzNLAOqCCLiRsMwPjwdnNMSJJhq8dyOj+njcoPGauusCfz9Odq/utlNIKCU+lCgkcsuLuIIT7mu+5He3l6+rzRlOCxBOEe5XL5CCPFNAGAXw3GFdYi4tlm3vnEJo8vJNgKVSuVsz/M+CwAc4wpPCSGunUmXcEaCsDS2bfMNwm8gItufjSuwG+S1+Xx+bU9Pz7QMjqsyXU77IZAQMRiIhsjBCRsiCCd0HOc8z/O+jojslD7O8CqPJp7nrTVNc1ecBeuy2hOBBIkRihyhCBKQ5AwAuD2qhZIZuouNLq9HxPWGYWxrz67VUjeDQLlcXiKEuCGkYYWGq+Q75rlcbtlM06r6AhseQWqZLMs6oru7mw9l/rJhycInvJfJwurG4bPqHO2EAFvE7+7urpHig0nJztdnu7q6+m688Uae2jccQhOkVrJt238phHCaMOczo5CI+AQThYi+rVVXZoSrrRKwaohvROFaImJyvCdB4X/NO19R/9lGJgg3qFwun5/L5ZgkkYzChQBlAgA2EtFG13Xv6+vreyVEXp00Iwiwdf9cLvdhRLzSv8jEMZ+waMOu6/b19vYySSKFpgjCNQZTrr8GgBWRJAif6RVEZEuLG994442NlmUxeXTIKAI8hXrTm95UJQQR8YHckSmIyv9Avyil/Jtm62qaIDUBHMe5gog+DwBpul1mjeEH2Se3EOIhwzB+0ywgOn/zCDiO8w7P89gVN88s+IigGSXCUAIhIhsG+aJhGDtCZZwmcWwE4fLvvvvueS+++OLnEbElzm98O76/8A1J8Gkrgzs2AAAERklEQVT9/Z2dnfeHXZDFAehcLGPNmjWd+/fvvwwALvM8j69Qv7cFOPwOAP46bnsGsRKkBopvzvSDiHiL/9/9ohYAVV/lQ/7dFnbrtg0Rt0op2YmlDk0ioJRih6aLEfE8AFgc1u9Lk9VPlf1rrut+8XAqI1HrTIQgNWGUUjX1gLOjChhzvueYKJ7n8TnL1sm6/zHXNWuKs22bSbBYCHEeE8O3PPP2LDSObSHwuZxhGHwskEhIlCAZJko9mDxXfQoAdhDRjkKhsGOuqr4MDQ2dPD4+fjoisiknjqcFn4m8fE0U+jATI+rWbZh6UyFImxClHjc+TNqBiEyapxFx58TExM5cLvfCvHnzdrbr2obXCvv27Tvedd0T8vn88UTEJmFP9c+ZaoQI4ycmzHsWV9ptRHS7aZqR7SaEFSRVgtStUf5CCHFdE2ZZwrYz1vRE9BIivuB7zdpJRDsRkReILyMi//2lsbEx9ln+UlrnNXy+AABHd3R0HEVER3NkO7REdBwisq0zJsMJiMh/b7vAUynP84anuvGXdGNaQpBaoyqVygc8z7s+sLJY9Zc+y4LHxGGyBJFNyez3d/n2ExHHMX7mv9U9s3WYTv+CWQd7/qo9I2L1OfAGxr/xy14lgr97I2YZbtwcxm1YCHFPsVhkw9MtCS0lSN3U61gmiT+duR4ReRGowxxFwDecsNWf9rEZ3OEs7DpmgiD170Jwa+wq9k2IiMfM0fdkrjV7J2tGCCE2FotFNjuVmZA5gtSQWb169ULXda/yPI8v5XOcjdOIzLwILRDkdSYFxwULFmxctmzZSAtkmLHKzBKkXvKBgYH/kMvleERhosR1H3lGcHSCRBDYyIYSWPE0C1OomVrYFgSpb8SqVavO9DyPT+gvIiL+TEP5bSYc9e/TI/ACEbFGw4N+vz3Y29vLFtfbJrQdQSYj6zjOnxARX7T5TykrSrZNJ6ctKCI+4utkPeBfg7i/VCo9knb9cdbX9gSpB8N3SMqOUi5hnyN8RyXQJtVrlzjfmEPL8libmklBRFtGR0d/ZFnWH5KtMr3SZxVBpoJt1apViycmJi4QQpwfXOziLWUdoiOwOxghHsnn81tuvvnmg2zZRi82mzlnPUEmwx5c9TwXAM7iSESsmv3vs9k9LZfqxcA78eMA8DgRPTrXrj7POYJM9crZtv02RKwnzFkJmDdq+dt+OAH8u+Fsm+zxGiGI6HFthimEXaxM924CwrFi3xtvvHFcoVB4m+d5rNN0XO0z0HFiB6THBaofCUgQW5F7fYuEbG+MI+uM1Z6rn4i4q7Ozc1e7KmDGhtI0BekRpEmE16xZM3///v1HTkxMHJXL5Y4koiOFENVP3oJGxNpzt2+XuIN1rFinyrd4X32u/xs/B+JUdbRYP8u3yDEW6Gkd9DcAGCGiV4QQL3uex3ewX6495/N51mN6ee/eva9YlpXJA7gmYU8t+/8FY6JD+aIM+p8AAAAASUVORK5CYII=;" vertex="1" parent="1">
          <mxGeometry x="459" y="205" width="53" height="53" as="geometry" />
        </mxCell>
        <mxCell id="woGdxvNeCgIBvUhekuP0-3" value="生产网数据" style="text;html=1;align=center;verticalAlign=middle;whiteSpace=wrap;rounded=0;" vertex="1" parent="1">
          <mxGeometry x="448.42000000000013" y="265.5" width="74.16" height="30" as="geometry" />
        </mxCell>
        <mxCell id="woGdxvNeCgIBvUhekuP0-6" value="" style="shape=flexArrow;endArrow=classic;startArrow=classic;html=1;rounded=0;" edge="1" parent="1">
          <mxGeometry width="100" height="100" relative="1" as="geometry">
            <mxPoint x="344.33000000000004" y="344.5" as="sourcePoint" />
            <mxPoint x="450" y="345" as="targetPoint" />
          </mxGeometry>
        </mxCell>
        <mxCell id="woGdxvNeCgIBvUhekuP0-7" value="主干网络串行部署" style="text;html=1;align=center;verticalAlign=middle;whiteSpace=wrap;rounded=0;" vertex="1" parent="1">
          <mxGeometry x="274" y="260.5" width="60" height="30" as="geometry" />
        </mxCell>
        <mxCell id="woGdxvNeCgIBvUhekuP0-9" value="核心镜像流量&lt;br&gt;旁路部署" style="text;html=1;align=center;verticalAlign=middle;whiteSpace=wrap;rounded=0;" vertex="1" parent="1">
          <mxGeometry x="104.63" y="262.5" width="80" height="30" as="geometry" />
        </mxCell>
        <mxCell id="woGdxvNeCgIBvUhekuP0-10" value="主干网络串行部署" style="text;html=1;align=center;verticalAlign=middle;whiteSpace=wrap;rounded=0;" vertex="1" parent="1">
          <mxGeometry x="-33.26999999999998" y="258.51" width="60" height="30" as="geometry" />
        </mxCell>
        <mxCell id="woGdxvNeCgIBvUhekuP0-11" value="" style="shape=image;verticalLabelPosition=bottom;labelBackgroundColor=default;verticalAlign=top;aspect=fixed;imageAspect=0;image=data:image/png,iVBORw0KGgoAAAANSUhEUgAAAE4AAABTCAYAAAAx4jFYAAAAAXNSR0IArs4c6QAAAARnQU1BAACxjwv8YQUAAAAJcEhZcwAAEnQAABJ0Ad5mH3gAAAwrSURBVHhe7ZxdbBTXFcfPnfUHNgYMGNZuIj7StOAqUgiklKhF4DUoUerGBEWtVEgoaSpVlSqClKiUkBaUAO1DAzRSqjZNCgolL1GAFtTSxDYOfUiRSMgLmBTVQAi2MQkYjL93bs//3pn1rte7O7M7M7aRf2LYmbtr7+7f59xz77nnjqCRIrx0Lhn5C8iU80iIr3PLPJI0jQRN5vNJfJTwdTcJ2UkkOkjKW/y6/3Lbp2SIc0RmE7U0nMKvGgmCFe4r1Q+QadaQFLX8zousVo0wTD4kHyEWiBsMPiT/M/ngR5ybA3hlPM3c/ncyxRG6Wv+e1RYI/gsXrorw29TwO63iq7mqDQLlTRAUKmR98vQhIFQmLPFwRPuIBnrixbzJTx/i9znCBnqUWk51We2+4J9w4ciP+bdv4bM56hri5E3QBwTzCrNfC4gDYipklK16B+V37aTLH3ZbjZ7ivXAVkVXcb73I7rZQWVZBCVsWxMq3XuAjZpTFYwH72dggopRfsIAvsRvvsV7hGd4JVxFZyq7yKz5boa4LuH/HofqrEaD/NlEfxxXtyuf52Eat9ftx4QW5f6vwypnsJ6+wQGvUdf5EokIIFlKXI07fLX0gwEj5b+4zXqS2uuPWs1mTm3Azqx8iQ/6Vz+ZSXpEWzAjAJd2CyKwEZAtU1/QMtdW/oS+yI3uzKI+sZdmP8NlUmlDKok0ZPVY2FHQXdmBSAcR8jErmFFDnhXr9Avdk903LI+jLfq86/+LpQlnbWICHiJTPnzXKkVhGl7J4lTSr+G/U3s5RxR3uXTUc2cc/9RSFCogmTNMfZizSc0MHECk+ImNgDbU0NlnPOMKdcOGqD9jsl1J+MYs21Wocw6Df672JPu86hUIRuvLeaeuZjDgZrmvCVXuVaHk8eL0TRAMYLhWx1wjup6PRAzTtEcyTHeFMOPRpQqxTllZUZjXeIajRAAIbVVJB31tWa0Yyd1AV1Rifvar6tKLpuu1OA98N8+Bo3zyaOHcK3W4+pp9ITXrhME4TkifNHD2LyoSzifgYBUMVzHvlwEMs3hcs3knrmWFJLRxmBIb5Dz6bqoYcQcw1LUonF1N52RS6ccvXBEcyEA/JAjIfpZK5J6mzGVO1YUkdVcNV+9U0CoNbTKN8Zs5dZfSj1UupdsUiWlA5y2olunGzi/YePEF79h6jC59fs1p9BGO8rnY+kRd4bqvTYMMwvHB6wv4B/wX6uV/z3dSeXfcw/frnjytLS8e2Vw/SVj58B1Oz3g50e5t4avZbqzWB4V114pw/srXdy6E65Pc0aisLtvO579OEwsx/n+XfqlSWefj9j6wWn0CwGEAaz1xC02f9gTouwn8TSFYF+TQSW5R7+uyicM1dL+ikilMWVM6mT85eoqb/tVgtPoFAONBTQFGeGnU2J6Xlk101XHWKrW0hlZTzs/5ZG9zy48MvKwtyC/q9qQ/+1LryEfR1SApEo1+j9saEQJE4vlDpbhZNJSD9ddFVHASyEQ1AdFir70AHEAr9Up8MkiickJu5aSD2Az5Su2KhdZYd98dFXt+wU1FET1P5sgdVm8WgcHo16h4qLMljq7Ma/QN9VS5ka62uKSjRj9L4nj7RxFmcqFEPWFgJgNJJ6YcemUA/FwhYkUO3JcRqq0UxKJygx8gImUHNEA69n9si/MUgBsM22l3voxnL7lXXjBYOK+xEX6W8osQ+z0f2vXvCOsuOvTn+vCu0cPwY0l7JaKFQlgDsFwTA8ZNN6sgGiBbI9MtG6cL9vqmqERS2hdWwD7OberjC7oDHf7bbtQB4/cYdWFgLGIgnaBlVLFNRyVBVQyQWB+mmNujgq9buoNM8E3ACXofXBxYY4rG9UeZ9Fw+GKrUCAVubDSzogdottHF7aiuCUHi+6skdwbpoPDF9pKqyEjx+28RuupOKZ/CTyISOLJhR2GklCHb67EU63XRpZKxsKJ1XJJnyX9RW/4ig8sib3LSeSipYxsC9dWzRdZUn/n2XqK1hNpSaxx7bMy6aA1Qdn5hFFTXFBqnyUWNcNSfYiY++nlL0cZd5tlBGE8MjEx0s0K/NuWuGmoMi+zHFygZ3cN+GgHDhcnvW4z7PwOI1FrENOZ/7uKoOnp8WU3EZ22FwQJwF82dR7cpFtHxxZcI6QzowVWv8T5Nahwg8YNgr/xT9JoJDlMco0SDWFgAEwxrD0EWZbNi971hwizgAtSaoOZEUgcV1ssUVsMX5LtzyxfNp1wtrcxZsKBAw3TjQM2KLOOYSDgoC5Yq+JuBgZVhbaNi/2XPRACwYaXg/fncCKFAEwrjFwslb3OCbcBDtL7/5ifpyfgLREFycAMs/+NoG68oN2G/BGP0snCQI57qwzgkQreGtzWo24DdwVyc5PqxVHHztWfWZ4AGusC3uNixObfMxea5lqekREA0f0Hf3YZBmctLHwep3bV6jPhuA5bkSDxXskq5RR+MNWNynsUYPwco8PpjfIGPiJM2UqloAnxH9oyOURlINJg29oYzxUDi4gd99GsA4bv2mP2UczylL4+A0VDQbeEVGy1N7yvgQpPTi4GDq4XhsO09u4MPhLxsE6ze9njGXZ4uWDgi/cXuGvSMxfcRZ/G9YWxebdXlT7sSnhfzESTBwKhryfBmTqbY+hsQWBVgcwNZFdlUU1uXIhgBc1EkwQDGPZ6IBCCfFGbrSYLsqg/2eIEerg6X5bW1OggEEy9RduBJNbajDiM2M1Zhp4fQm2Y5chfN7vIYvmy4YoH91Mth2JRqwdZGmNjDGclVG0mGlbA5jYT/rObRoqYMBRMMYLVMxjmvRgBJOtNHVxg91Q7xwel8Wm2X2VpdrPUg69qQJBral+SIa+n3V95vv6AZNnHAdR5UjY5NslvhVCINgkKqE1RYtUzeRlWggpodgfQYZFA572LEdG+6KvJNL/BINXzRdMIBgvokGS0MqSVIjtdajAj9GYlbk7iVF1F/0GYXyp9PEsNXoHPz1/QBfPBUY8aeb2mUtGui5ri3ONFfQ1eN1VqsiOZ00M7KB7XA3FU4erEgcpcDS0qWHchIt2kvUhcyyOEitdQklXmDQVW2w8V/yfExtx7bSKKOUdau/Y50lk5NowN5NHTW36ZNEkoUDgl5We9gh3igFfWqqvg2rYTmJhlJ9PQR5g9obPtGNiQwvHO6WgI3/UN2jyb/XDB16wMIgGOpQ3BTyJMMG03tTTRMoNLBVtyWTOmUerl5OQjao1etijpg+V6G7AUGouf4V9QjB7DFe9mLF0f2ltjii59iAfqfahiH9WoO+W82fVaUOxBslYAK/ji0OS4Oerq/aC85w0da6Z3Tj8GRepCmv3s7mu1ntssGGuFEAEglYS/VMMGCvmRLVsaXpm86kIbP/dTbXq7slmP33Ecr4R6iOLp7Wax3U05t7CiwGhh5wUSL29YKHqfN8xr/I8MFhKNPanuI+82Nlytr/7xy0aBh3mWRGf0Ct/8Sey4w4E+7MmT4yoj9k8a6rv4w9xhnr2KJJ0+BA+GR89iMTzoQDuC8HbjEh6awqA8AxlkGfhpmBWoCRa6il4YD1jCMyB4eh4BYT+f1v85s9qgqKcSuNsVaUOBg9Pydz4Ak3lmbjfnDWfb6XbjcfUHdLwMZ/jLARMMbEHW94cNuNibvK/vCkvWAltdXpdWWXZP9tcYsJ3C0BG/+RQVARd+SLr1OCoNb9ZZRnQuweGKfVP+EkeqYiNzPBLSZwtwSib3NHW6o+HNw2wDtGZAQBAP2xSlpgJiWeZ9GS9p+6xX0fl4pw5Bf823BPzBJleUhJBbjFKQk7CTmY0X6TjP6tdOXEZ9Z1TngnHJi9rJR6Q6gleF5dQzjs9wxy0AzBIFZsyCQOUXRgG7U3Or7hlBO8Fc4G2xP1duyn1TUSBBDRPrwGGRwEKRxqYYVBuluaLw3N3HqFP8LZYDs2dhYLUctX9+tGfktbwGyjMcZe8WKpvkvRwhfv8nsc5X4sYY3Aa/wVLh5YIfZ7SsIWz2rdyCAaI3WlNl9ARL5GG4KMuiEoZkPWoyrTGJB8Hve5xTm+foePI9mMx7IlOOHiwdZFtQtPLmJN5vGn+Aa33q2fTAtm4uf4587wRz+rCmCsWo6gGRnhhqOiphg7VqgwOolMcxLJEIdlswuFyqi5RfkoKiGtV48zzjjjjDPOaIPo/xMFxOMDOZapAAAAAElFTkSuQmCC;" vertex="1" parent="1">
          <mxGeometry x="-27.78" y="98" width="46.99" height="50" as="geometry" />
        </mxCell>
        <mxCell id="woGdxvNeCgIBvUhekuP0-13" value="" style="shape=image;verticalLabelPosition=bottom;labelBackgroundColor=default;verticalAlign=top;aspect=fixed;imageAspect=0;image=data:image/png,iVBORw0KGgoAAAANSUhEUgAAAHEAAAD/CAYAAADGxDl4AAAAAXNSR0IArs4c6QAAAARnQU1BAACxjwv8YQUAAAAJcEhZcwAAEnQAABJ0Ad5mH3gAACN5SURBVHhe7Z0JfBXVvcf/c28WIAk75EZ4GngKYq3S6oPWpw0JixsWsZ9WUSv01daq5SnW1/rQClalaqu4VNzaJ7Qq2loRC9YFEhBr3QvalqVVAkVIcGFLCCHJzPv/zswh42XuNjNn7kTm+/mce2fO3Dt37vmd//+sc0ajrkhFzReJjKNJp+Gk0TAyOGhaL44rJUMr47ju/KlmDnv42C7SjB28vZ63N/Cx9aTHVtP25e/jVJ8Fuo6IA8eMZaEm8hV/lS97qBVrosV10mIxPs7bMURw0FlTwwodOhk6DnRiGG/w55eywEtoW91bVmyXJLwiHlHVjVrjEzmxWTjtbI5hS2NiBUQF3YjiReY2QjZ/w2BR9XYzdLQSte8z48Qx2sQvi3h/KW1fucyM7DqET8Rjvl5EH380k4WbyXuFIg6CCeEQzChfkGIiQFwAQWPGHLbOB82I8BMuEcurp/MlXc9X1Z8trIMKS+NCvFjc+oBCOto4sJj7m6SF/pWVnU0NK34vjoeYcIg4sPp8trzr+GpGiPKtuCxGhSXWwaDhMrR1D4vJwdx9gTR9Dou50owIH/kVsaLmFE6kn/LWf7KIBhWVaRzMY/nG6DDFbEMlV7CQ2mJX08fLtlr7oSF/IpbXTONff1hsF5VyYPFEzTJk6OxmIWZ7CwtrbGbXfgFtW/aydTQUBFDYOFBe8xMW8A7hOnv004TrRPMgjGicRIXc7EQtuGMf2qL/RaVD66lp4xrrE3knYBFnxag8/ggL+H2KF5MQMOZjbTMNvXv2oH2tbFVuQa24gK8ZNVpDP5tKKmPUXL/COppXgsv+/ccdRXH9Mf7FE6mwB1G3PtYBNUC0K6eeSpPGnUCVg/qLfVD/wUf09LK36K75z4vtnEFZ2bLDEtN4lBrrLuJYq8GZH4IRceDYz5Nm1PKv9afinmb5p5Axo46mh2/9rhAvHXcueJ5m3PyotZcj+1jItr28YfyZGr5yMtENeRNSvYgVE3uQsfdV3vo8de/LLgndmuqA9c299gJrLzMrXl9H1RfOsfZypIUtuR0WSWyRtRdasYGjvkwsGfw4Z5UxVMx1AsVtv1wFBLDWMaNH0IKnVlkxOYBiAe5VbzuOSobEqXljnXUkUNSKmKi5jQW8WIgHN6oQiLFw7uXUrTj3ihK+u2btZlr3/jYrJgfgWTr2Q8wqFnITC7naOhIY6hpmiZrv8ev/iG6zbr3NOIXMmj75QOXFDQ/f8h1rywXduZKGrkG0e9GBETBqRKyoGc+v9/Ef01XXQgEs6WyuhXoBGWDaOS7TH21J+T8NYyENrhlk7gSDGhF1uodfDerWNxZELwwETLbC1ewe04EKTTKTxn3R2nIB2r1CSG0QtRu3m5HB4H8KJ8ZcxW5lOFdkNDGEFABVo4+2tkx27t5Ld3HzIR033P2UtdXJmFEjrC2XoKKD3h3SzqXymmozUj3+ilg+voQMbaZwo+gPDYiRI46wtkzmL1olhEwHGvrJ1gpr9lKuCmQbWKPrzQ31+GyJ7RjM7UdFPdX7UBsQzB7QXNi5u/mgeHsAN9yz6KD4TB0EGUE3opmBx3Dl7usiTjH+NfYrxh1Ohl5PsQKdSsoD7pMNGWg7NjVi62/UsPxYEacQ/0Qsr76frfAS6t7PnEoRMKhZeqmYwAq/dc1D1p4PYFC5dTe2LqWG2vtFnCL8EXFA9fEU11ZzDa2NevQPZlgiCdRQF827wtrLHXSKT77sLmvPDwy2xgbMsmtgEZU2Ofwpu+J0lngvLsuLgGDF62utLXesfO3gJoc32D6KSpG+h1HFmFPNODX4VAHRzuTQJtpKeQLucL6b/k9GfJdrtL4jixVDm2huqMG7iIlq1O+/xO2jvFmhBLVNN6BNCSF9BzVVc17sJDNCDd5FlLksD5WZZND2y3V8EG1FjCsqw0yXf6PyMaPFvgK8NwVKK2/gWumR1L0PFwL+VXbd8uqa90SD/Usjj7RiUgMBq785R40VSjB3SAwea9tUDVV5E7HPuF5UQL/isrCFCkvy7k4lz696VwwtQUinHhiIduuDS+jSWfPVCgjgToWI1J+aNs4TcT7jzXQqqs9nd/qoGGrK22Tf9KDpMXLE4XTEoP60c89eIS6aE8rFs7Nvpzl/NaYNp63LN1ixvuFNxPLqn7O7+AGVlFsFeP6B5Y08+nDHUQo7+By62DKNdvhCWwsL+QnXH4xzqbHut1asb3gTMVH9Bz7FaVQ2KO8KYnLUpPEn0LTJpxxwoWhyoB/VLqjT52CZi5e97bqJkhHc57F3O28Y11ND3Y1mpH94tcT1bIEJKk2onXuRBogy99oLhctMB2qgGGpK9zm42BlzHvVfTNwj2bQV74+wJX7TivUNDyJWFVAijgb+h9Sj/wArMjBgRXNnXuB+ND4NcLEzbn4ko0vOiaZtOukdb7GIo6wY33DfTqwgc+KMFgu8gQhr+svim5QICHD+ukdm0uzpk60YH4jFcSezx3EuZ9yLqFujn1os0EmzIoF/M9P7uF8WYPJVrlMgUyOS2rzb2Wfci2h0SBED6zCFcBBQVkiCAHNZvU7CEqDRb5CSC3cvYly3RNS41A4Gr9MS3YLpjJ4tXywKQVz0cF3CZ9yLqMXN1rJheKvhZgncqKoyMBPIOJ6tETVUbjESrbQWB/AP9yK2tZv3Q5sXpxxfXJoH4AU8YaZTk9j2GfciHrigYCzx+DTtuyCANXpz5ULEA/eO+4l7EWNFliWiO0I9ydMS84GnctFckWOn2PYZb1ZUXvMvihf0pJJy5T02KBN7lzlbguyxQY8LOrmR2GioO00Qllwxzax12r8DMM8G0x2dWL1us/uO8z0fwBifosbar1kxvuFNxETNcn49mcoGKZ/qnc6VLZp3pej0/sKk68TAMCZM9e5ZwoLcaX3iYFDGof8U44noocF3IOqQ6quEqE64FhALHTWLKYy3UEPt/4o4H/FqifP4DJdSaQK1VStSDRvr7kjrzpDAfU7EjVgkelqyqYjk+h1kElejHlixquVjWOK32BLnW7G+4aViw+hm5yLuz/MZNCeQsOjgzgZYKrri0Ka7ghvo2SC/g16ZbL/jCpk+hrbe3PAXb5Y4cOxQihnvqVhIQVqenA+ayRKDwLUlNm/H3cRbVc0/9WaJWDMUS062t3RYMTmDCgkEslsc4qRgnu9UyjdiZUeuwBu02IrxHe8FWdnQCn6tEWu8uBjdX/vcrZQY0Eu4T7gFNCWm8vbRQw8Tx3H7NgStHDzAYzvNOw88XksNH+2y9rIE82uwXIpmzKam+n9Ysb7izZ2CiuoT2Ne/Ke4EwuIKOYIyLF/dabniyp3uFStstHCFRlkO9FixYcSqvcb7ogbmgkw3g3ZpcHcUrJDoWbGvCO8iAoOeOeD7cwSu8zOLzNgx3d3U9Czx7k7BwKpxFIu/KKYtZlgpA5UWVOsB2mnJ5RzibntoKb274V/U1LyPPtnVTOdMONF7B7QP5OxO935oNi9aY71px7IcC9Ps8ccSsW62YTwn5lZmsMbKQZ3TcZwEvOAH99GEUz5PP/j2GWJW2uL7Z1Av/py/t50FgKjQiPbhLSoFBP6ICGKaubYW1gZNg2z3OS2Od+0dv6N7Z08Vi+dhqS7cV4FuMFE7tdqMXQZz5eI91LbP5Zpj2eOfiNtqV7E1PioWdzUL85RADKf11No7OthdbTpILNzBC3eKuaH5Al7CKeM5gnXExcLwxk/o41fS52of8E9EoGVnjcDJlfboVuyYUDgG2tpc9yl4Ar+PjCSvIy0Y/BVWqG2hhrqfm5Fq8VfEhtq/87+4W1giLDIFqNwkV1QgKhrSTj006M3ByMKAvtbyIgGCigwEzNqVQ0CMHRp6V10ChdHZGg2jVVijw9QNNOwxY81pusXokf8u3u3rrEFArF36M66xBtkcwXgkymQMVWUtICoyQkR6gxrrzPXNA8CfJkYyA2uu4Oxxp1iBEGuc2oDF7Xgz9WISM2//HQ0bkhBiw33BAiHg+JOPTTnPBi4YQVaAcgW/g+/jvv9NW8z3nHtmYH1oUoj2Mk2g7bUvWkeUo0ZEkKhBm+C/nbrj5IRcJBhG2JMTHlaw8rW1tP3j3TSwX09hgak+A5DgdmtBRsEsAFnu2mcE2Ad8ZSbJqqzLBMYLzcb997hYeUDEBYQ6EUF5zXP8C6emu38RFpfrMpUQTfkdvrkg7z8kupsFdL8Oi0v8LxPtFHefwuXiBvEnU/StunF/sLDQCIjmhCngM/kQEKgVcfPSHaTp8J1tYuFzrJedRNXoztpotsK4Lft8BxmzFZ0x2t9I6zHFjAwetSKChpVvsjVeKAp+3C2bJGT9Fq4MMHCR6JvUhl30qfINwiIec2FkBwHi8j6FEdaHclA8aLP9PNq2JG+uQW2ZaKd87LmkGY/wVkFyGYlaJ2qE0hLtNVgIau83RRsT5Fx79BNYH9wo0T+5XTFFZNQ8ot4SJY3Ln+A8cxKH90QZKdyQCYSyu1Jsy56b5K42iJc3AdHuhfWZAr5ARftH5VtAEJwlSgZP6EvtHQs5RSaIdiQmWKV4TpRsItgFzhsYncGTafCuaQ/QtuXmXMcQELyIkkTN3fw6XSydVVzGTlbtQ088Actr3c1maGjckL+SG/KhGhfL3+KyTRv/SGVDdnGFZxy1t8RI38/OnS8nJEupCDAmKCpj6Ac2trKGF7KAvzYPhof8WaKk37jDqLDjf/lSvi/2YZGwzICe5uYImg6wPvFQL+Id4yfUWIeHdYaS/IsowUPBYvpMvqTzxD5qr0UcghQTou3npsOBERjtXq76zaKty0VbIqyER0RJ+dgxXHvAgvB4QIrpXrFSIYKK9VRhdSK02J7Fry1k8WarWMJLBeETUYLVesUynNo5vGfOJMZNOwcELeJ9Fy0kTCNEh4MUj/2libaOmxBP8sYfqLH2dTOuaxBeEe2U12ABn4mkGZP4ko8zIxmICEtFEILy38G7WKkCA7MQCJVK3kbTQG83OK7zPxvaKtI6nuYK1ZKuYnVOdA0R7Rw2dhjpHbDQEazPcPGOh2tmZgt//u+cETbw+9uktS2hhpfNPr8uTtcT0YleVb2pRC8jvbCMrQ5V2x5sYXsoFttDrfE9VKDtosYXxVBDREREREREREREiPFSOz2ewyUcfswh226pkzm8bG6m5AwOr3FIPufjHH7BYavYI3rfes8VXMP5HDAjbQ0iXID/jdHpdDfK1HD4EQe3vxEYP+TwCYehYo+oHwfEOQU8TgCtb7NvNDX/5JD86AFkGHwXiQee44BzugEi4lw3iz13yP+UDvwG0iP04CKThZGCugFiQcTkPw/xEC+RQuDzuSK/C4t3S7YiBoKLzsdPAZeHWV722c5u3RyAWNdxwHmRGaSYeD7vg+amAC75Pg7SVUGYbDnJelf+cMqgyEePjbSe5LICguFBT6eJPdPdncsBz1jChBuIVs8hGTz5Ep9DZkK5mQlY0K0cMHXuWkS4AOdAmVcr9pzBbwSSvn78CCwG1gf3lE3uvsZ6h3XZhUTCYBUGxEFQLBfyVQ6f44Cpb/ZrRZmIBLxN7OUGMgdu6sA1X4YIF+BaUalJN10fGepyDsrHIt2KCLcnb7BAjjuTA2qUiLO70zc4zOCQqUYK6/wGB1gGXOPpHHCLFMpanONEDqlEhOCDOWRbC8R3sWQlKmS4fzBX949Kl5NHcAIZFgvyBXpvRrbYKy+pamEQAAmVTeUD1oHPIoGQQbCNc0JQWDh+A7lfBlRyZA0VIjtVhlKBz+J7+J1MNWUn8LvZlsG47lzK67yRqhaGxJICZpPA8rNwQ7LmiIQGyb8hBcwVXIdMWPxeNmVoMk4i4jpxPcn/MxARvdZOU4E/9DMOdhcHK0tnlfgsLOM9DnLxHoy0+4l8ECXuicPvwU17aRJJ0PDHM/WVl39OqBAROa+Sg70cwJ/DPh4CmUpICDiNgywXkbvNeTbpQe7PVgg8dfUJDjKx0Wy52tz0BCpKvzM3uyZ2V4eEl+5GBlilDCi/ZHlnR5Z7sqyDoPbP4Jj9PPYyEefDeZPPmQyOJ7s3xGVbbkuc3CnO4dR5EIg79QO7iEh87MsExh+z/wlYDI4nJxoSE+VTqj9s/w0gz58LqDzhe8ngPNlkAkmyiPgvuD6n7+eaQQIHFy1Fs19oJtfmlGOdwOdg2fgdryIi0ZGgTteG88Oyk/trU5Gc0fA9BMTL2rX8nWwzRl5AAuOPy0RGLse2F3AenBcJkWyVmUTE91IlGDJYKncnwW/hN/C7uSS8U+ZAxkYcrBvboQR/EheYbAkQEfEQFBePP5gq4Lv2HCtdEr6P48ngGL4jg71MxO9JAZLBefHZdAJKpFfB57GdSUyZkZ3cJb6L65P/KZSk+oOIhzhIUPknnAKOJZ8jXULjO7mC8+E6Mrl3O1JIWBIyh9N38RlcPzxGpnPjMzifk9CHHEi0XEBGQmK7AZ4gOYNBBJxTeplUmdgJfC8iIiIiIiIiIiIiIiIiIiIiIiIiIiIiIiIiIiIiIiIiIiIiIiIiIiIiIiIiIiIiIiIiIiIiIiIiIiLCXwJZylEpA6qOpHj8KDKMMv47ZWRQKWkGHoHaxPt7SOOgd+ykQmM9fbByi/mlzxZdS8TDT+5D+wvxiKEzWazj+OqP4thcnprZxN9bR2S8RRRbQo3Ll3Kcm/UAQkX4RRw4dihp+plsUWfzHhaKNYnFdYoVxrJ64JfegYd98SYHvGMf4AGXGi3mjaVU1GMJbV66wzzQtQiniAOqStlFXsUiTGJBsLKwiXzsHgIew+cWCCkfvYcHX0oMeoFfn6HG2nvNiK5B+ERMjL2KUxPrgPdhqzJYMO2AcCou98DzFFsgKkwXZvwuGdocFtNpbZzQER4RE2OncuJdz1tDhass6hmjQvMR7cHBGoonee8xt8moI137KW2vtS9UHzryL2L52Ilc5v2YL2UUu06DxdOoqNQ6mCdQnu5nISGo2DeepBiLua32bTMiXORXxET1L/kSvi22i7iFAPFEBSUkoOyEmHhUOzCMmWF8ynd+RBxUNZjaCx7j9twpwmVCQNQww0rHfnaxu8x3Mn5JDXXfMQ+Eg+BFTIypYsUW8laFEK+4pxnfFdjHLRBYJZ5FXGhMoS21H5gH8kuwIpZXf4vLvf8T2936UPAVFx9o3W26WKJtrOZ5bJUvifg8ElwBVF5zoxBQ45pnjwFdU0AAz4EMCE9C2kr+X1i3PK8EY4mJGizOfhPFi9qpe98CTw31sIBOgpYdOrczY5yKk7nm+rR1JHDUi1hecx7/ykKKsYAlAwKrvfTu2YPGjBoh3kH9lg9p9brNtHO3VdP0Azy7f++HBulGCzcrv8ztyXesI4GiVsTyGm770Z+42RBnF6qproFCsLPHnUBXTD2VRo7AoyoOZsXr62jBU6toPgdfQNddy8dcPNJa0jtG0YcrrcZlcKgTsaKqPxnxP/PWkdS9P1FBsRmviDGjjqa5116YUrxkVq/dTJMvu5PqP8AD4Twienm4CWIYi7gdeY4VGxjqCqeSoU9yRWY0devNlZjuVqQapp1zCj18y3epcjBnlixJDOglvvf8qneo4aN0T5XNgngRv+hwryOoZEgpNW8MtJtOjSUmqu/hU39f9MAUy4e7qQGWV/ebmQfKvlxBGfmFSdf5Y5Fwq3CvRJdSQy0eFxgI/jcxKmq+KASMF7epFhDAhboVEOC7c6+9wNrzCJoeWoxNkq4nmhVY883/H9Jppngv7lko3hWCSgzKQjso69LhdBznqRyUvStOCfp9i3siTSso8ZKZDgHgr4gV1RPYQX9NNORFOaGWqecc/AiNG+5ZZG05g5ppKiF9obCEUxX5V/sxJU4bYEaqxV8RDb5wgD7RAKgc9Ok0QrNh9dpN1l5qZtz8iLXVSdXoT1u0J4rF/y8iozUQa/SvYjOwegrFtMeCqMxIULvsXdZZHs5fZLb9pk0+Rbw7seL1tcISk7+7c89e/9qOYC9XlMTUj9gx1LAMz2tUhn8iJqrf4dN9jkorYkGOCaJMHDniCGvPHU8ve8uf2qkdTPlo4XMa9BtqrL3IilWCPyImavAUz9+KzuGAXKnEbCN6G96bfNldQkjfafnEnLtjdAyhxpXZPkw6Z/wxGcPA072JCtxX9d3iNfHhWpUICA50csTxBFVl+OX3zuIaWQfFgh+dQGMdluSWTLVZT4gZeoxGmDOrDO8iDhw7jjStL+e6vI0vwZLcVEogoDIrFHBpZQo5lnpV9RZRCvCe8KWV01nEL1E3rpHmcZxw8bK3aRdb5WlfOc6KSQ2s99JZ8+nOBc9bMSoxzK64ovhfqWnju1akr3hP9bKhv2DxyrhZkT8FLV5d8x7dxcK0trZR754lopPbDsq/Bx6vpSlXzaNXV+NJ8AGAIkZMfTT2U1P9781If/FWO62oPoEb+G8G2TZMB/pBkwd90Z2GeDQh5DGnzynFbDM2U0Otkgm13kQsr76GXelPqUd/tmm144WpQDtxzOgRNMnW/4lG/+IX3xIDwBIIN/Low2kqN0nQxYZ9lIdr2DpRnvreTrSDiVWYYGUYY6mxrtaK9Q1vIiaqH+ZTTOMGPr8F18CHAFdOPVUIl2kQGAJVDh4gBMT3UuH7iL8d2fAn4zJqqLvPjPQPjymvDeNT7AtKQIiAYaONtXfQrOmTsx7Fx/yadAICWDQ6DXa8eb/oQPAVOS3FIE4v//GW+oYxnAtuMQqqGjn4CwvMJIgd1FoRsgXnhph/WXxTTr+TFtF+1nCHznCx7zPuRex7Wk8uD/txLlM+g00KmK3lSVDOodxDyLXMw2/5K2QBF11aLk8azxoPlrjf6iQVI9nKQCIumnelq8REGSdx06hHRQmZxxdw97JmKKmduhexm3VBmqZ09Bfu0+2ou104u6C5AIv0pYyEiKQpufHEvYi6blpiTPh6ZaBJ4AY07O0j+Nh224yYNK7zjnP3IKnFqh6+415EQ/axeWulpAMW6NYKFzu4TzcuFWAmuT+INPM9wTyUiZo509kwlKnotlKB3hin9p7bEQt/KjfssAxCN5Hvnsu9iLG4uL+LDF2dKboEUzCcXCfEVdozkw7cQq5hgST/cS9iYbEUEbfPhooFT71sbR3MXfODGLlwQKypQ81i22fci4iFe7CYj6Errdi4AZaYCrflomew1IpB/7L2fMVDmchoxgZxe1eOoIyZPX0y1T0yU/SOYBvvi+Zd4cv8z3TnuGLaqdZWgIjVreBOOb0U4E1E0tbzxXHbJ3tjRLsLNU70fWLKoOx0xjvGADEhGP2YEMKpoZ3NEBIyhFPbDm1OhMDBKhwm6613X/EmomHlLPMmkqzA9EKIg1H1VW+sp9NOOY4uv2AcnTPhP+jNd94XQqKHBsBi0b6TtUp8Z0jNVWI7ExDSPsUf4vl2z0WuSBF1CqElavSKeO/MaVkBcZCo0y8aTz+6ZCJdffEZYhvvSHh7lR7l22xb0yCXwVy4azHeyAGWnzdkJo8V435N3/EmYkPds2yOu/kic1MxQGDVbvtefUOIqL1CDc99aEb4i8cyEWhLqWN/gah9hRCIl38BUWfQnxT7CvAuom4sEe85lItdDU8dBAdcaQwL5CrBu4htcfPiPqMiogyecfOj1p4LTFf6N9q6XEmlBngXcceyXVxL/WOn2/hsAPFQG8at4K47CHBXlGjkG09ZMUrwoUwEXC4CzOgKiFxqqdmA86E5A+FwWwCaMrBAX1wp6cpcKfCn87p8/EDOdpsoVhCj0vK0g8TZ3sWEhEQPDhIViWls+PWntmEd+Aw6DtD2FBWYss5KTK8UlRnMEpcZAPckYhKVeGexfM0YWGe8uQHO6Q1qrB1lxSrBvxGIRPV1fLobzSVPSqzIg/EiInp2MOkJ8VLE0LJvJ9cXmllE7SxqXG5W/hTh4zDS1+OU+GgzaQWHUWnCijsYiDh35gX07Mo1tLVxB7V36FTSvZi2f7KbSnsU0/ChFaLLTYoIC0GQvS+wFuxj0NfeCRAqsC7qXm4SGvQ8W+FpVqwy/B0LTFRfyqecl+5mU7i/nqXdafH9M4QguH8e7gz336NzGu4N91PANWIfM7Qh2uq1m/x3eaqQN5fq2km0fbmSXho7/g/oJmpw5w9u+9ZSTSpGuYVut6rRI4Q4m7Z8REcMNqdirHxtnXChXRZUZrAoEWkLqWH5+WakWvwXsbz6G6RpT4TlJpvAkQsuxLThKtuGdnxqYthorPstv9aK27nkAuiHCmhiibahcXtQAgL/RQRG/GJ+bRBrZovFzw8BkGHNZaVXcEa+WsQFhBoRG1/cSLp+odiGkBjV/iwD68P/xLrg7W2BlIN21N3d21y/kcoqt7FrOUuMN3bVNb8zgUa9qMgYXMPQT6ftL/3dPBAc6kQETfVvUWlld/6jJwtrlKtJfJZAc0LMMzKmUsMKpY36VKgVETTVL6OSymP5jx4j9hWvQBwo+9Ae5CaFYdzA5WDeuo/UlInJdNO/ya9cY+WCH3+8q4PiAT0ybVgtih5iAWdbR/KC/+3EdCSqH+KfvFgso4kFXhUv7K4EWN6+HQYXDxoLeA011t5qHckb6t2pnab6P7Br3c8JMFZ0S2Fd0K4kJDq0RS0Uj0SlKSzggyI+zwQrImiuf5mFxBTtSSxkXNwKHcACt57BavvmeOk/SDNOp4a6ZSI+BATrTu0kqk4kI7aANO0YsXwKOszDWOkRjfjdOtewY+w+n6NuHVNo08qd1tFQELwlSpo2baX+RzxG7bEiMjq+TO2cWKgwwL3mYaG/gzDLPtOFGgZM8Dp2n5fTrk1yuD405M8S7RxWPZw6tJl8NebirhhUhmXmQ0x0E6IWLadWaLG5tH/vLPr4FfMusBASDhElA6pPojiLSWSun4peHnQQxDmIe94VIR4OzaLJIOJoASs6W+Vis34RLhEl5TVn8ZVdw1snmREMxJTBj9Uc0csiRbN30hv0FMWMObStLk/3wOVOOEWUVIw7nK2ErVKDZZrWCVCbRRDlpxXEALTD38HNnbA0lLcyQLTOW/Ka+Ht/JF1fRB2tS8LsNlMRbhHt9DupjK2QhTQmsms9i2OclxPBE8LF6k0GN8ZTrCdgGJv5nz/D6i+lhuXPWbFdlq4jYjLl44eQpg9n9zeM34exZlhXp4z14xqRVsLxbFHGHhZ1D4u2g2K0nq1tA3Xo6+mjVdvMk0REREREREREREREREREREREREREREREREQcGvSz3sMCrids1+RIMNP4O/knh0vMzYMYzwEDtKoSzs15sZTUD83NCHAeB9yIcbzYMzmDg0xcCDzP3DyA/bhXHueQqyB4LBCWyUqV8UJBUCP7EOI1Dm9ygJByBlkNB0xIwmINN3F4gkMfDsnHrxV7ndzMYZe5mRVYPECuKf0jDmvMzaxAxnqJAzJBMsiYwOlYYAQloj0h8MencZDru0BguC0sC4y7Nd/gMIvDsxxUA68AK3OaliiFT/fQSmQykGvG6HIgkWSOldjdKqzK7jLxeZSNdrebD07mAFcaeoKwRIixhcO9HOSDDCs5IPfL3A6XKd2jjMN6aEdxgHXmA4i4ikPXnUwWILA6JJgd7Od7KiGuAa7dieTrzStBNjFQ01PyEMgMwBPAZeeKnH2OGq094Fyw0FxrusoI0lWguXA3h+QbM7/L4QUO9soF3C0ET7e4nRQmUy0Vz83rzWE+h1xqkfgs3P9tYq+TQ9rNItGdLMLJnULAfLus5DatBJkRbdrQEKQ7ncDhT+ZmRt7ngKd2IRH9auznAoSCiE7NhmM5hErEoFwCEgVLKM/hkFwLPZJDsjuV4M4ouLXLxF5wwDukcr/SmyR3QBwSJLsmdAAgOLlTCdppQVsiriWdpeF6Q1OpySdSQJBKRMTBpQUJMgyaFenKY1xTuuOBE/QoBiosEA1ljZOLhLXC9eJzp3N4nYOfoOcouffIzo0cbueQ6imauC707YbqHsagykTk8G9zQDn4Kw6ouEggKjq/ZcIhlz/DAYmFG0vtfagQ4CscnMrPbEjX12nv35UgU+FZfX/lgMUXkLEu5dCXwyEDci76QlEZwLYTTu4U+0G5LFwXBHRqTgBkQAiL8hnhkCsPUyWMHYicSmDVQCC470zgcxA6VGVhREREREREREREREREREREREQ4Ifp/8DNtX8lIbJ0AAAAASUVORK5CYII=;" vertex="1" parent="1">
          <mxGeometry x="-250" y="236.55" width="74.87" height="168.96" as="geometry" />
        </mxCell>
        <mxCell id="woGdxvNeCgIBvUhekuP0-14" value="" style="shape=flexArrow;endArrow=classic;startArrow=classic;html=1;rounded=0;exitX=0.901;exitY=0.519;exitDx=0;exitDy=0;exitPerimeter=0;" edge="1" parent="1" source="woGdxvNeCgIBvUhekuP0-13">
          <mxGeometry width="100" height="100" relative="1" as="geometry">
            <mxPoint x="-160.61337999999978" y="323.36760000000004" as="sourcePoint" />
            <mxPoint x="-40" y="323.25" as="targetPoint" />
          </mxGeometry>
        </mxCell>
        <mxCell id="woGdxvNeCgIBvUhekuP0-15" value="1.运维申请" style="text;html=1;align=center;verticalAlign=middle;whiteSpace=wrap;rounded=0;" vertex="1" parent="1">
          <mxGeometry x="-135.55" y="290.5" width="60" height="30" as="geometry" />
        </mxCell>
        <mxCell id="woGdxvNeCgIBvUhekuP0-16" value="3.获得相关权限" style="text;html=1;align=center;verticalAlign=middle;whiteSpace=wrap;rounded=0;" vertex="1" parent="1">
          <mxGeometry x="-148.33" y="327.5" width="85.55" height="30" as="geometry" />
        </mxCell>
      </root>
    </mxGraphModel>
  </diagram>
</mxfile>
